<svg id="Layer_1" data-name="Layer 1" xmlns="http://www.w3.org/2000/svg" xmlns:xlink="http://www.w3.org/1999/xlink" viewBox="0 0 512 512"><defs><style>.cls-1{fill:url(#linear-gradient);}.cls-2{fill:url(#linear-gradient-2);}.cls-3{fill:url(#linear-gradient-3);}</style><linearGradient id="linear-gradient" x1="-935.3" y1="-1145.19" x2="-744.46" y2="-1196.32" gradientTransform="translate(1094.11 1425.31)" gradientUnits="userSpaceOnUse"><stop offset="0" stop-color="#4724ff"/><stop offset="1" stop-color="#fc80ff"/></linearGradient><linearGradient id="linear-gradient-2" x1="332.32" y1="761.75" x2="80.6" y2="510.03" gradientTransform="translate(-381.34 461.19) rotate(-90)" gradientUnits="userSpaceOnUse"><stop offset="0" stop-color="#fc80ff"/><stop offset="1" stop-color="#4724ff"/></linearGradient><linearGradient id="linear-gradient-3" x1="74.09" y1="74.01" x2="437.99" y2="437.91" gradientTransform="translate(0 512) rotate(-90)" xlink:href="#linear-gradient-2"/></defs><path class="cls-1" d="M254.3,492.7h0a30.34,30.34,0,0,1-14.1-3.5l4.3-9.3a22.26,22.26,0,0,0,9.8,2.5h0a20.29,20.29,0,0,0,6-.9l2.8,9.9A32.29,32.29,0,0,1,254.3,492.7Zm19.1-6.6-5.5-8.6A57,57,0,0,0,280.8,464l8,6.2A66.44,66.44,0,0,1,273.4,486.1Zm-42.6-3.4a80.26,80.26,0,0,1-13.9-16.9l8.3-5.7a68.77,68.77,0,0,0,12.1,14.8ZM294.6,461l-8.5-5.3a176.07,176.07,0,0,0,8.8-18l9,4.1a169.8,169.8,0,0,1-9.3,19.2Zm-83.2-4.6a190.24,190.24,0,0,1-8.8-19.5l9.2-3.9a178.51,178.51,0,0,0,8.3,18.4Zm96.4-24.6-9.3-3.7c2.2-6,4.3-12.6,6.3-19.5l9.5,3c-2,7.1-4.2,13.9-6.5,20.2Zm-108.9-4.9c-2.2-6.4-4.3-13.2-6.2-20.3l9.5-2.8c1.9,6.9,3.9,13.5,6,19.6Zm118.2-25.6-9.6-2.7c1.6-6.4,3.2-13.2,4.6-20.1l9.7,2.2c-1.4,7.1-3,14.1-4.7,20.6Zm-127-5c-1.6-6.6-3.1-13.6-4.5-20.7l9.7-2c1.3,6.9,2.8,13.7,4.4,20.2Zm133.7-26-9.7-1.9c1.2-6.6,2.3-13.5,3.3-20.5l9.8,1.5c-1,7.1-2.1,14.1-3.4,20.9Zm-140.1-5.1c-1.2-6.8-2.2-13.8-3.2-20.9l9.8-1.4c.9,7,2,13.9,3.1,20.5Zm144.8-26.3-9.8-1.3c.8-6.7,1.6-13.7,2.2-20.7l9.9,1c-.6,7.1-1.4,14.2-2.3,21Zm-149.3-5.1c-.8-6.9-1.5-14-2-21l9.9-.9c.6,7,1.2,13.9,2,20.7Zm152.4-26.4-9.9-.8c.5-6.8.9-13.8,1.2-20.8l9.9.5c-.2,7-.6,14.1-1.2,21.1Zm-155.2-5.2c-.5-6.9-.8-14.1-1.1-21.1l9.9-.4c.3,6.9.6,13.9,1.1,20.8Zm156.8-26.5-9.9-.3c.2-6.9.3-13.9.3-20.8v-.3h9.9v.3c.1,7,0,14.2-.3,21.1ZM175,270.6c-.1-5.3-.2-10.7-.2-16v-5.1l9.9.1v5c0,5.2.1,10.5.2,15.8Zm148.6-26.7c-.1-6.9-.3-13.9-.6-20.8l9.9-.5c.3,7,.5,14.1.6,21.1ZM185,239.1l-9.9-.2c.2-7,.4-14.2.8-21.1l9.9.5C185.4,225.2,185.1,232.2,185,239.1Zm137.5-26.4q-.6-10.5-1.5-20.7l9.9-1c.6,6.9,1.1,14,1.6,21.1ZM186.3,208l-9.9-.7c.5-7,1-14.2,1.7-21.1l9.9,1C187.4,194,186.8,201,186.3,208ZM320,181.6c-.7-7-1.6-13.9-2.6-20.6l9.8-1.5c1,6.8,1.8,13.9,2.6,21Zm-130.8-4.7-9.9-1.2c.8-7,1.7-14.1,2.8-21l9.8,1.6c-1.1,6.7-2,13.6-2.7,20.6Zm126.6-26.1c-1.1-7-2.4-13.8-3.7-20.4l9.7-2.2c1.4,6.7,2.6,13.7,3.8,20.8Zm-122.3-4.7-9.8-1.8c1.2-7.1,2.6-14.1,4-20.8l9.6,2.2C196,132.3,194.6,139.1,193.5,146.1Zm116.4-25.8c-1.6-6.9-3.3-13.6-5.1-20l9.5-3c1.9,6.5,3.6,13.4,5.3,20.5Zm-110.2-4.6-9.6-2.5c1.7-7.1,3.6-14,5.5-20.5l9.4,3.1c-1.9,6.3-3.6,13-5.3,19.9ZM301.8,90.5c-2.2-6.8-4.6-13.3-7-19.2l9-4.2c2.6,6.2,5,12.9,7.3,20Zm-93.6-4.4-9.3-3.5a206.51,206.51,0,0,1,7.8-19.9l9,4.4a171.08,171.08,0,0,0-7.5,19Zm82.4-23.9a121.34,121.34,0,0,0-10-17.1l8-6.2a133.07,133.07,0,0,1,10.9,18.6ZM220,58.1l-8.7-5A112.69,112.69,0,0,1,223,34.9l7.6,6.6A99.42,99.42,0,0,0,220,58.1Zm54.6-20.5c-4.8-5-9.7-8.4-14.5-9.8l2.7-9.9c6.5,2,12.8,6.2,18.8,12.5ZM237,34.5l-6.5-7.9c6.5-5.9,13.4-9.2,20.5-10.1l1.1,10.3C247.1,27.5,242,30.1,237,34.5Z"/><path class="cls-2" d="M492.6,254.7h0a30.34,30.34,0,0,1-3.5,14.1l-9.3-4.3a22.26,22.26,0,0,0,2.5-9.8h0a20.29,20.29,0,0,0-.9-6l9.9-2.8A32.29,32.29,0,0,1,492.6,254.7ZM486,235.5l-8.6,5.5a57,57,0,0,0-13.5-12.9l6.2-8A68.39,68.39,0,0,1,486,235.5Zm-3.4,42.7a81.27,81.27,0,0,1-16.9,14l-5.7-8.3a68.77,68.77,0,0,0,14.8-12.1Zm-21.7-63.8-5.3,8.5a151.13,151.13,0,0,0-18.1-8.8l4.1-9.1a149.61,149.61,0,0,1,19.3,9.4Zm-4.5,83.1a190.24,190.24,0,0,1-19.5,8.8l-3.9-9.2a178.51,178.51,0,0,0,18.4-8.3Zm-24.7-96.4-3.7,9.3c-6-2.2-12.6-4.3-19.5-6.3l3-9.5C418.6,196.6,425.4,198.8,431.7,201.1ZM426.9,310c-6.4,2.2-13.2,4.3-20.3,6.2l-2.8-9.5c6.9-1.9,13.5-3.9,19.6-6ZM401.3,191.8l-2.7,9.6c-6.4-1.6-13.2-3.2-20.1-4.6l2.2-9.7c7,1.4,14,3,20.6,4.7Zm-5,127c-6.6,1.6-13.6,3.1-20.7,4.5l-2-9.7c6.9-1.3,13.7-2.8,20.2-4.4ZM370.2,185.1l-1.9,9.8c-6.6-1.2-13.5-2.3-20.5-3.3l1.5-9.8C356.4,182.7,363.5,183.8,370.2,185.1Zm-5,140.1c-6.8,1.2-13.8,2.2-20.9,3.2l-1.4-9.8c7-.9,13.9-2,20.5-3.1ZM338.9,180.3l-1.3,9.8c-6.7-.8-13.7-1.6-20.7-2.2l1-9.9C324.9,178.8,332,179.5,338.9,180.3Zm-5.1,149.3c-6.9.8-14,1.5-21,2.1l-.9-9.9c7-.6,13.9-1.2,20.7-2ZM307.3,177.3l-.8,9.9c-6.8-.5-13.8-.9-20.8-1.2l.5-9.9C293.3,176.3,300.4,176.8,307.3,177.3Zm-5.1,155.2c-6.9.5-14.1.8-21.1,1.1l-.4-9.9c6.9-.3,13.9-.6,20.8-1.1ZM275.7,175.7l-.3,9.9c-6.9-.2-13.9-.3-20.8-.3h-.3v-9.9h.3c7,0,14.1.1,21.1.3Zm-5.2,158.2c-5.3.1-10.7.2-16,.2h-5.1l.1-9.9h5c5.2,0,10.5-.1,15.8-.2ZM243.9,185.3c-6.9.1-13.9.3-20.8.6l-.5-9.9c7-.3,14.1-.5,21.1-.6Zm-4.8,138.6-.2,9.9c-7-.1-14.2-.4-21.1-.7l.5-9.9c6.8.4,13.8.6,20.8.7ZM212.7,186.5q-10.5.6-20.7,1.5l-1-9.9c6.9-.6,14-1.1,21.1-1.6Zm-4.8,136.1-.7,9.9c-7-.5-14.2-1-21.1-1.7l1-9.9c6.9.7,13.8,1.2,20.8,1.7ZM181.6,189c-7,.7-13.9,1.6-20.6,2.5l-1.5-9.8c6.8-1,13.9-1.8,21-2.6Zm-4.8,130.8-1.2,9.9c-7.1-.8-14.1-1.7-21-2.8l1.6-9.8C163,318.1,169.9,319,176.8,319.8ZM150.7,193.2c-7,1.1-13.8,2.4-20.4,3.7l-2.2-9.7c6.7-1.4,13.7-2.6,20.8-3.8Zm-4.6,122.3-1.8,9.8c-7.1-1.2-14.1-2.6-20.8-4l2.3-9.7C132.2,313,139,314.3,146.1,315.5ZM120.2,199c-6.9,1.6-13.6,3.3-20,5.1l-3-9.5c6.5-1.9,13.4-3.6,20.5-5.3Zm-4.6,110.3-2.5,9.6c-7.1-1.7-14-3.6-20.5-5.5l3.1-9.5C102,305.8,108.7,307.6,115.6,309.3ZM90.5,207.1c-6.8,2.2-13.3,4.6-19.1,7l-4.2-9c6.2-2.6,12.9-5,20-7.4ZM86,300.8l-3.5,9.3a206.51,206.51,0,0,1-19.9-7.8l4.4-9c5.8,2.6,12.2,5.1,19,7.5ZM62.1,218.3a121.34,121.34,0,0,0-17.1,10l-6.2-8a138,138,0,0,1,18.5-10.9ZM58,289l-5,8.7A112.69,112.69,0,0,1,34.8,286l6.6-7.6A101.78,101.78,0,0,0,58,289ZM37.5,234.4c-5,4.8-8.4,9.7-9.8,14.5l-9.9-2.7c2-6.5,6.2-12.8,12.5-18.8Zm-3,37.6-7.9,6.5c-5.9-6.6-9.2-13.5-10.1-20.5l10.3-1.1c.7,5,3.3,10.1,7.7,15.1Z"/><path class="cls-3" d="M512,254.7C511.9,396.8,396.7,512,254.6,512A257,257,0,0,1,72.7,436.6c-99-102-96.6-264.9,5.3-363.9,99.9-97,258.7-97,358.6,0A256.25,256.25,0,0,1,512,254.7Zm-495.4,0c0,131.4,106.5,238,238,238A238.13,238.13,0,0,0,422.9,423c92.9-92.9,92.9-243.6,0-336.6S179.3-6.5,86.3,86.4A237,237,0,0,0,16.6,254.7Z"/></svg>