<svg id="Layer_1" data-name="Layer 1" xmlns="http://www.w3.org/2000/svg" xmlns:xlink="http://www.w3.org/1999/xlink" viewBox="0 0 512 512"><defs><style>.cls-1{fill:url(#linear-gradient);}.cls-2{fill:url(#linear-gradient-2);}.cls-3{fill:url(#linear-gradient-3);}.cls-4{fill:red;}</style><linearGradient id="linear-gradient" x1="-933.37" y1="-1143.97" x2="-743.59" y2="-1194.82" gradientTransform="translate(-913.31 1094.11) rotate(90)" gradientUnits="userSpaceOnUse"><stop offset="0" stop-color="#4724ff"/><stop offset="1" stop-color="#fc80ff"/></linearGradient><linearGradient id="linear-gradient-2" x1="330.39" y1="762.46" x2="80.04" y2="512.11" gradientTransform="translate(50.81 -381.34)" gradientUnits="userSpaceOnUse"><stop offset="0" stop-color="#fc80ff"/><stop offset="1" stop-color="#4724ff"/></linearGradient><linearGradient id="linear-gradient-3" x1="74.98" y1="74.98" x2="437.02" y2="437.02" gradientTransform="matrix(1, 0, 0, 1, 0, 0)" xlink:href="#linear-gradient-2"/></defs><path class="cls-1" d="M19.25,255.63h0a30.92,30.92,0,0,1,3.49-14l9.27,4.3a21.44,21.44,0,0,0-2.46,9.75h0a20.06,20.06,0,0,0,.93,6l-9.87,2.82A29.69,29.69,0,0,1,19.25,255.63Zm6.54,19.08,8.53-5.52A55.81,55.81,0,0,0,47.79,282l-6.13,7.93A65.63,65.63,0,0,1,25.79,274.71Zm3.4-42.45A79.33,79.33,0,0,1,46,218.39l5.7,8.21A69,69,0,0,0,37,238.65Zm21.57,63.47,5.29-8.46A160.87,160.87,0,0,0,74,296l-4.11,9A168.2,168.2,0,0,1,50.76,295.73ZM55.31,213a189.59,189.59,0,0,1,19.4-8.77l3.88,9.14a178.92,178.92,0,0,0-18.31,8.27Zm24.5,95.91,3.66-9.22c6,2.2,12.57,4.31,19.41,6.27l-2.95,9.45C92.85,313.41,86.08,311.22,79.81,308.93Zm4.84-108.32c6.34-2.17,13.14-4.25,20.21-6.17l2.81,9.5c-6.85,1.85-13.43,3.86-19.54,6Zm25.46,117.58,2.66-9.53c6.39,1.63,13.13,3.17,20,4.58l-2.14,9.65C123.58,321.45,116.67,319.87,110.11,318.19Zm5-126.36c6.59-1.6,13.52-3.1,20.59-4.46l2,9.67c-6.91,1.33-13.67,2.8-20.1,4.35Zm25.92,133,1.91-9.69c6.59,1.19,13.45,2.29,20.37,3.27l-1.5,9.76C154.72,327.21,147.73,326.09,141,324.87Zm5-139.38c6.75-1.15,13.75-2.21,20.81-3.14l1.41,9.77c-6.93.92-13.8,2-20.41,3.09Zm26.17,144.1,1.32-9.79c6.71.83,13.63,1.56,20.55,2.18l-.95,9.82C186.07,331.17,179,330.43,172.2,329.59Zm5.08-148.53c6.84-.78,13.88-1.47,20.92-2l.88,9.83c-6.93.56-13.85,1.24-20.58,2Zm26.31,151.59.79-9.83c6.79.49,13.74.9,20.66,1.2l-.46,9.85C217.55,333.57,210.49,333.16,203.59,332.65Zm5.1-154.4c6.9-.46,14-.82,21-1.07l.38,9.86c-6.91.25-13.87.6-20.67,1.05Zm26.39,156,.3-9.86c6.84.19,13.81.29,20.71.29h.28v9.86h-.28C249.08,334.54,242,334.44,235.08,334.25Zm5.1-157.37c5.27-.11,10.62-.17,15.91-.17,1.7,0,3.4,0,5.1,0l-.08,9.86-5,0c-5.21,0-10.49.06-15.68.17ZM266.72,324.6c6.91-.1,13.87-.3,20.7-.6l.46,9.86c-6.92.3-14,.5-21,.61Zm4.75-137.86.22-9.87c7,.15,14.08.4,21,.75l-.54,9.85C285.34,187.13,278.38,186.88,271.47,186.74Zm26.28,136.74c6.92-.41,13.86-.92,20.64-1.53l1,9.82c-6.89.62-13.94,1.14-21,1.55Zm4.74-135.41.7-9.84c7,.46,14.08,1,20.95,1.7l-1,9.81C316.35,189.08,309.41,188.52,302.49,188.07ZM328.67,321c6.93-.74,13.83-1.59,20.51-2.54l1.5,9.76c-6.8,1-13.82,1.83-20.87,2.58Zm4.71-130.12,1.22-9.8c7,.8,14.07,1.73,20.85,2.75l-1.59,9.74C347.2,192.52,340.31,191.61,333.38,190.83Zm26,126c6.92-1.11,13.74-2.35,20.27-3.69l2.15,9.65c-6.68,1.36-13.65,2.63-20.71,3.77ZM364,195.15l1.8-9.71c7.07,1.21,14,2.54,20.68,4L384.27,199C377.76,197.64,371,196.33,364,195.15ZM389.7,311c6.89-1.58,13.57-3.29,19.87-5.1l3,9.44c-6.48,1.87-13.36,3.63-20.43,5.25Zm4.59-109.69,2.51-9.56c7.07,1.7,13.93,3.56,20.37,5.51l-3.11,9.4C407.81,204.78,401.16,203,394.29,201.32Zm25,101.61c6.8-2.2,13.21-4.56,19.05-7l4.13,9c-6.12,2.56-12.81,5-19.89,7.31Zm4.43-93.13,3.46-9.29c7.08,2.42,13.72,5,19.76,7.72l-4.36,8.93C436.89,214.6,430.54,212.12,423.77,209.8Zm23.79,82a120.42,120.42,0,0,0,17.05-9.93l6.15,7.91a129.46,129.46,0,0,1-18.54,10.82Zm4.08-70.27,4.95-8.65a113,113,0,0,1,18.14,11.62l-6.61,7.56A102.35,102.35,0,0,0,451.64,221.52ZM472,275.84c5-4.75,8.32-9.61,9.77-14.43l9.89,2.73c-1.94,6.47-6.13,12.77-12.44,18.73Zm3-37.39,7.81-6.43c5.84,6.51,9.2,13.38,10,20.4l-10.24,1.05C482,248.47,479.41,243.41,475,238.45Z"/><path class="cls-2" d="M256,492.75h0A30.92,30.92,0,0,1,242,489.26l4.31-9.27a21.4,21.4,0,0,0,9.74,2.46h0a20.12,20.12,0,0,0,6-.93l2.81,9.87A29.69,29.69,0,0,1,256,492.75Zm19.08-6.54-5.52-8.53a55.62,55.62,0,0,0,12.82-13.47l7.93,6.13A65.63,65.63,0,0,1,275.08,486.21Zm-42.44-3.4A79.05,79.05,0,0,1,218.76,466l8.22-5.7A69.23,69.23,0,0,0,239,475Zm63.46-21.57L287.64,456a159.15,159.15,0,0,0,8.76-18l9.05,4.11A168.17,168.17,0,0,1,296.1,461.24Zm-82.71-4.55a189.62,189.62,0,0,1-8.76-19.4l9.13-3.88A181.11,181.11,0,0,0,222,451.72Zm95.91-24.5-9.22-3.66c2.21-6,4.32-12.57,6.28-19.41l9.45,2.95C313.78,419.15,311.59,425.92,309.3,432.19ZM201,427.35c-2.17-6.34-4.25-13.14-6.16-20.21l9.49-2.81c1.86,6.85,3.86,13.43,6,19.54Zm117.58-25.46L309,399.23c1.64-6.39,3.18-13.13,4.58-20l9.65,2.14C321.82,388.42,320.24,395.33,318.56,401.89Zm-126.36-5c-1.59-6.59-3.09-13.52-4.45-20.59l9.67-2c1.33,6.91,2.79,13.67,4.35,20.1ZM325.25,371l-9.7-1.91c1.2-6.59,2.3-13.45,3.28-20.37l9.75,1.5C327.59,357.28,326.47,364.27,325.25,371Zm-139.38-5c-1.15-6.75-2.21-13.75-3.15-20.81l9.78-1.41c.91,6.93,1.95,13.8,3.08,20.41ZM330,339.8l-9.78-1.32c.82-6.71,1.55-13.63,2.17-20.55l9.82.95C331.54,325.93,330.8,333,330,339.8Zm-148.52-5.08c-.79-6.84-1.47-13.88-2.05-20.92l9.83-.88c.57,6.93,1.24,13.85,2,20.58ZM333,308.41l-9.83-.79c.5-6.79.9-13.74,1.2-20.66l9.85.46C333.94,294.45,333.53,301.51,333,308.41Zm-154.4-5.1c-.45-6.9-.81-14-1.07-21l9.86-.38c.25,6.91.6,13.87,1.05,20.67Zm156-26.39-9.86-.3c.19-6.84.29-13.81.29-20.71v-.28h9.87v.28C334.92,262.92,334.82,270,334.62,276.92Zm-157.37-5.1c-.11-5.27-.17-10.62-.17-15.91,0-1.7,0-3.4,0-5.1l9.86.08c0,1.67,0,3.34,0,5,0,5.21.05,10.49.17,15.68ZM325,245.28c-.1-6.91-.31-13.87-.6-20.7l9.85-.46c.3,6.92.51,14,.61,21Zm-137.87-4.75-9.86-.22c.14-7,.4-14.08.74-21l9.86.54C187.5,226.66,187.25,233.62,187.11,240.53Zm136.74-26.28c-.4-6.92-.92-13.86-1.52-20.64l9.82-1c.62,6.89,1.14,13.94,1.55,21Zm-135.41-4.74-9.84-.7c.46-7,1-14.08,1.7-20.95l9.81,1C189.46,195.65,188.9,202.59,188.44,209.51Zm132.88-26.18c-.74-6.93-1.59-13.83-2.53-20.51l9.75-1.5c1,6.8,1.84,13.82,2.58,20.87ZM191.2,178.62l-9.8-1.22c.81-7.05,1.73-14.07,2.75-20.85l9.75,1.59C192.9,164.8,192,171.69,191.2,178.62Zm126-26c-1.11-6.92-2.35-13.74-3.69-20.27l9.65-2.15c1.37,6.68,2.63,13.65,3.77,20.71ZM195.53,148l-9.71-1.8c1.2-7.07,2.54-14,4-20.68l9.62,2.25C198,134.24,196.71,141,195.53,148ZM311.38,122.3c-1.57-6.89-3.29-13.57-5.1-19.87l9.45-3c1.86,6.48,3.63,13.36,5.25,20.43ZM201.7,117.71l-9.57-2.51c1.7-7.07,3.56-13.93,5.51-20.37l9.41,3.11C205.15,104.19,203.35,110.84,201.7,117.71Zm101.6-25c-2.2-6.8-4.56-13.21-7-19l9-4.13c2.57,6.12,5,12.81,7.32,19.89Zm-93.13-4.43-9.29-3.46c2.42-7.08,5-13.72,7.72-19.76l8.94,4.36C215,75.11,212.49,81.46,210.17,88.23Zm82-23.79a119.46,119.46,0,0,0-9.93-17l7.91-6.15A129.46,129.46,0,0,1,301,59.78ZM221.9,60.36l-8.65-5a112.33,112.33,0,0,1,11.61-18.14l7.57,6.61A102.35,102.35,0,0,0,221.9,60.36ZM276.21,40c-4.75-5-9.6-8.32-14.42-9.77l2.72-9.89c6.47,1.94,12.78,6.13,18.73,12.44Zm-37.39-3-6.43-7.81c6.52-5.84,13.38-9.2,20.4-10l1.05,10.24C248.84,30.05,243.79,32.59,238.82,37Z"/><path class="cls-3" d="M256,512A256,256,0,0,1,75,75,256,256,0,0,1,437,437,254.33,254.33,0,0,1,256,512Zm0-492.75A236.75,236.75,0,0,0,88.59,423.41,236.75,236.75,0,0,0,423.41,88.59,235.19,235.19,0,0,0,256,19.25Z"/><path class="cls-4" d="M230.93,416a8.42,8.42,0,0,1,7.7-11.83h34.74a8.42,8.42,0,0,1,7.7,11.83l-9.92,22.43-7.45,16.85a8.42,8.42,0,0,1-15.4,0l-7.45-16.85Z"/></svg>