<?xml version="1.0" encoding="utf-8"?>
<!-- Generator: Adobe Illustrator 24.2.1, SVG Export Plug-In . SVG Version: 6.00 Build 0)  -->
<svg version="1.1" id="Layer_1" xmlns="http://www.w3.org/2000/svg" xmlns:xlink="http://www.w3.org/1999/xlink" x="0px" y="0px"
	 viewBox="0 0 512 512" style="enable-background:new 0 0 512 512;" xml:space="preserve">
<style type="text/css">
	.st0{fill:url(#SVGID_1_);}
	.st1{fill:url(#SVGID_2_);}
	.st2{fill:#FF0000;}
	.st3{fill:url(#SVGID_3_);}
</style>
<linearGradient id="SVGID_1_" gradientUnits="userSpaceOnUse" x1="-1654.8215" y1="2749.8855" x2="-1906.6801" y2="2498.0269" gradientTransform="matrix(1 0 0 1 2036.7776 -2369.3577)">
	<stop  offset="0" style="stop-color:#FC80FF"/>
	<stop  offset="1" style="stop-color:#4724FF"/>
</linearGradient>
<path class="st0" d="M256.1,492.6L256.1,492.6c-4.9,0-9.8-1.2-14.2-3.5l4.3-9.3c3,1.6,6.5,2.4,9.9,2.5l0,0c2,0,4.1-0.3,6-0.9
	l2.8,9.9C262.1,492.1,259.1,492.6,256.1,492.6z M275.4,486l-5.5-8.6c5-3.8,9.5-8.3,13-13.5l8.1,6.2
	C286.6,476.2,281.5,481.6,275.4,486z M232.4,482.6c-5.4-5-10.2-10.6-14.1-16.9l8.4-5.7c3.3,5.5,7.5,10.4,12.2,14.8L232.4,482.6z
	 M296.7,460.9l-8.6-5.3c3.3-5.8,6.4-11.9,8.9-18.1l9.2,4.1C303.4,448.3,300.3,454.7,296.7,460.9L296.7,460.9z M212.9,456.4
	c-3.3-6.3-6.3-12.8-8.9-19.5l9.3-3.9c2.4,6.3,5.2,12.4,8.4,18.4L212.9,456.4z M310.1,431.7l-9.4-3.7c2.2-6,4.3-12.6,6.4-19.5l9.6,3
	C314.6,418.6,312.4,425.4,310.1,431.7z M200.3,426.9c-2.2-6.4-4.3-13.2-6.3-20.3l9.6-2.8c1.9,6.9,3.9,13.5,6,19.6L200.3,426.9z
	 M319.5,401.3l-9.7-2.7c1.6-6.4,3.2-13.2,4.6-20.1l9.8,2.2C322.8,387.7,321.2,394.7,319.5,401.3L319.5,401.3z M191.4,396.3
	c-1.6-6.6-3.1-13.6-4.5-20.7l9.8-2c1.3,6.9,2.8,13.7,4.4,20.2L191.4,396.3z M326.2,370.2l-9.9-1.9c1.2-6.6,2.3-13.5,3.3-20.5
	l9.9,1.5C328.6,356.4,327.5,363.5,326.2,370.2z M185,365.2c-1.2-6.8-2.2-13.8-3.2-20.9l9.9-1.4c0.9,7,2,13.9,3.1,20.5L185,365.2z
	 M331.1,338.9l-9.9-1.3c0.8-6.7,1.6-13.7,2.2-20.7l10,1C332.6,324.9,331.9,332,331.1,338.9z M180.5,333.8c-0.8-6.9-1.5-14-2.1-21
	l10-0.9c0.6,7,1.2,13.9,2,20.7L180.5,333.8z M334.1,307.3l-10-0.8c0.5-6.8,0.9-13.8,1.2-20.8l10,0.5
	C335.1,293.3,334.6,300.4,334.1,307.3z M177.6,302.2c-0.5-6.9-0.8-14.1-1.1-21.1l10-0.4c0.3,6.9,0.6,13.9,1.1,20.8L177.6,302.2z
	 M335.7,275.7l-10-0.3c0.2-6.9,0.3-13.9,0.3-20.8v-0.3h10v0.3C336,261.6,335.9,268.7,335.7,275.7L335.7,275.7z M176.2,270.5
	c-0.1-5.3-0.2-10.7-0.2-16c0-1.7,0-3.4,0-5.1l10,0.1c0,1.7,0,3.4,0,5c0,5.2,0.1,10.5,0.2,15.8L176.2,270.5z M326,243.9
	c-0.1-6.9-0.3-13.9-0.6-20.8l10-0.5c0.3,7,0.5,14.1,0.6,21.1L326,243.9z M186.3,239.1l-10-0.2c0.1-7,0.4-14.2,0.7-21.1l10,0.5
	C186.6,225.2,186.4,232.1,186.3,239.1L186.3,239.1z M324.8,212.8c-0.4-7-0.9-13.9-1.5-20.7l10-1c0.6,6.9,1.1,14,1.6,21.1
	L324.8,212.8z M187.6,208l-10-0.7c0.5-7,1-14.2,1.7-21.1l10,1C188.6,194.1,188.1,201,187.6,208L187.6,208z M322.3,181.7
	c-0.7-7-1.6-13.9-2.5-20.6l9.9-1.5c1,6.8,1.8,13.9,2.6,21L322.3,181.7z M190.4,176.9l-10-1.2c0.8-7.1,1.7-14.1,2.8-21l9.9,1.6
	C192.1,163.1,191.2,170,190.4,176.9z M318.1,150.8c-1.1-7-2.4-13.8-3.7-20.4l9.8-2.2c1.4,6.7,2.6,13.7,3.8,20.8L318.1,150.8z
	 M194.8,146.2l-9.9-1.8c1.2-7.1,2.6-14.1,4-20.8l9.8,2.3C197.3,132.3,196,139.1,194.8,146.2z M312.2,120.3c-1.6-6.9-3.3-13.6-5.1-20
	l9.6-3c1.9,6.5,3.6,13.4,5.3,20.5L312.2,120.3z M201,115.7l-9.7-2.5c1.7-7.1,3.6-14,5.5-20.5l9.6,3.1
	C204.5,102.1,202.7,108.8,201,115.7z M304,90.6c-2.2-6.8-4.6-13.3-7.1-19.1l9.1-4.2c2.6,6.2,5,12.9,7.5,20L304,90.6z M209.6,86.1
	l-9.4-3.5c2.4-7.1,5-13.8,7.9-19.9l9.1,4.4C214.5,72.9,212,79.3,209.6,86.1L209.6,86.1z M292.7,62.2c-2.9-6-6.3-11.7-10.1-17.1
	l8.1-6.2c4.1,5.9,7.9,12.1,11,18.5L292.7,62.2z M221.5,58.1l-8.8-5c3.3-6.4,7.3-12.5,11.8-18.2l7.7,6.6
	C228.1,46.6,224.5,52.2,221.5,58.1z M276.5,37.6c-4.8-5-9.8-8.4-14.6-9.8l2.7-9.9c6.6,2,12.9,6.2,19,12.5L276.5,37.6z M238.6,34.6
	l-6.6-7.9c6.7-5.9,13.6-9.2,20.7-10.1l1.1,10.3C248.8,27.6,243.6,30.2,238.6,34.6L238.6,34.6z"/>
<linearGradient id="SVGID_2_" gradientUnits="userSpaceOnUse" x1="-1911.8933" y1="2062.0488" x2="-1548.0161" y2="2425.926" gradientTransform="matrix(1 0 0 1 1985.9677 -1988.0176)">
	<stop  offset="0" style="stop-color:#FC80FF"/>
	<stop  offset="1" style="stop-color:#4724FF"/>
</linearGradient>
<path class="st1" d="M257.3,512C115.2,511.9,0,396.7,0,254.6c0-68.2,27.1-133.7,75.4-181.9c102-99,264.9-96.6,363.9,5.3
	c97,99.9,97,258.7,0,358.6C391.1,485,325.6,512.1,257.3,512z M257.3,16.6c-131.4,0-238,106.5-238,238c0,63.1,25.1,123.7,69.7,168.3
	c92.9,92.9,243.6,92.9,336.6,0s92.9-243.6,0-336.6C381.1,41.6,320.5,16.5,257.3,16.6z"/>
<path class="st2" d="M232.1,415.4c-1.9-4.3,0-9.3,4.3-11.2c1.1-0.5,2.2-0.7,3.4-0.7h34.9c4.7,0,8.5,3.8,8.5,8.5
	c0,1.2-0.2,2.3-0.7,3.4l-10,22.5l-7.5,16.9c-1.9,4.3-6.9,6.2-11.2,4.3c-1.9-0.9-3.5-2.4-4.3-4.3l-7.5-16.9L232.1,415.4z"/>
<linearGradient id="SVGID_3_" gradientUnits="userSpaceOnUse" x1="-389.3114" y1="427.6892" x2="-137.5568" y2="175.9346" gradientTransform="matrix(6.123234e-17 -1 1 6.123234e-17 -44.5235 -9.1196)">
	<stop  offset="0" style="stop-color:#FC80FF"/>
	<stop  offset="1" style="stop-color:#4724FF"/>
</linearGradient>
<path class="st3" d="M495.3,254.3L495.3,254.3c0,4.9-1.2,9.8-3.5,14.2l-9.3-4.3c1.6-3,2.4-6.5,2.5-9.9l0,0c0-2-0.3-4.1-0.9-6
	l9.9-2.8C494.8,248.2,495.3,251.3,495.3,254.3z M488.7,234.9l-8.6,5.5c-3.8-5-8.3-9.5-13.5-13l6.2-8.1
	C478.9,223.7,484.3,228.9,488.7,234.9z M485.3,278c-5,5.4-10.6,10.2-16.9,14.1l-5.7-8.4c5.5-3.3,10.4-7.5,14.8-12.2L485.3,278z
	 M463.6,213.7l-5.3,8.6c-5.8-3.3-11.9-6.4-18.1-8.9l4.1-9.2C451,206.9,457.4,210,463.6,213.7L463.6,213.7z M459.1,297.4
	c-6.3,3.3-12.8,6.3-19.5,8.9l-3.9-9.3c6.3-2.4,12.4-5.2,18.4-8.4L459.1,297.4z M434.4,200.3l-3.7,9.4c-6-2.2-12.6-4.3-19.5-6.4
	l3-9.6C421.3,195.7,428.1,197.9,434.4,200.3z M429.6,310c-6.4,2.2-13.2,4.3-20.3,6.3l-2.8-9.6c6.9-1.9,13.5-3.9,19.6-6L429.6,310z
	 M404,190.9l-2.7,9.7c-6.4-1.6-13.2-3.2-20.1-4.6l2.2-9.8C390.4,187.5,397.4,189.2,404,190.9L404,190.9z M399,318.9
	c-6.6,1.6-13.6,3.1-20.7,4.5l-2-9.8c6.9-1.3,13.7-2.8,20.2-4.4L399,318.9z M372.9,184.1L371,194c-6.6-1.2-13.5-2.3-20.5-3.3l1.5-9.9
	C359.1,181.7,366.2,182.8,372.9,184.1z M367.9,325.4c-6.8,1.2-13.8,2.2-20.9,3.2l-1.4-9.9c7-0.9,13.9-2,20.5-3.1L367.9,325.4z
	 M341.6,179.3l-1.3,9.9c-6.7-0.8-13.7-1.6-20.7-2.2l1-10C327.6,177.8,334.7,178.5,341.6,179.3z M336.5,329.8c-6.9,0.8-14,1.5-21,2.1
	l-0.9-10c7-0.6,13.9-1.2,20.7-2L336.5,329.8z M310,176.3l-0.8,10c-6.8-0.5-13.8-0.9-20.8-1.2l0.5-10
	C296,175.2,303.1,175.8,310,176.3z M304.9,332.7c-6.9,0.5-14.1,0.8-21.1,1.1l-0.4-10c6.9-0.3,13.9-0.6,20.8-1.1L304.9,332.7z
	 M278.4,174.6l-0.3,10c-6.9-0.2-13.9-0.3-20.8-0.3H257v-10h0.3C264.3,174.3,271.4,174.4,278.4,174.6L278.4,174.6z M273.2,334.1
	c-5.3,0.1-10.7,0.2-16,0.2c-1.7,0-3.4,0-5.1,0l0.1-10c1.7,0,3.4,0,5,0c5.2,0,10.5-0.1,15.8-0.2L273.2,334.1z M246.6,184.3
	c-6.9,0.1-13.9,0.3-20.8,0.6l-0.5-10c7-0.3,14.1-0.5,21.1-0.6L246.6,184.3z M241.8,324.1l-0.2,10c-7-0.1-14.2-0.4-21.1-0.7l0.5-10
	C227.8,323.8,234.8,324,241.8,324.1L241.8,324.1z M215.4,185.5c-7,0.4-13.9,0.9-20.7,1.5l-1-10c6.9-0.6,14-1.1,21.1-1.6L215.4,185.5
	z M210.6,322.7l-0.7,10c-7-0.5-14.2-1-21.1-1.7l1-10C196.7,321.7,203.6,322.2,210.6,322.7L210.6,322.7z M184.4,188.1
	c-7,0.7-13.9,1.6-20.6,2.5l-1.5-9.9c6.8-1,13.9-1.8,21-2.6L184.4,188.1z M179.6,319.9l-1.2,10c-7.1-0.8-14.1-1.7-21-2.8l1.6-9.9
	C165.8,318.2,172.7,319.1,179.6,319.9z M153.5,192.3c-7,1.1-13.8,2.4-20.4,3.7l-2.2-9.8c6.7-1.4,13.7-2.6,20.8-3.8L153.5,192.3z
	 M148.9,315.6l-1.8,9.9c-7.1-1.2-14.1-2.6-20.8-4l2.3-9.8C135,313.1,141.8,314.4,148.9,315.6z M123,198.1c-6.9,1.6-13.6,3.3-20,5.1
	l-3-9.6c6.5-1.9,13.4-3.6,20.5-5.3L123,198.1z M118.4,309.3l-2.5,9.7c-7.1-1.7-14-3.6-20.5-5.5l3.1-9.6
	C104.8,305.8,111.5,307.6,118.4,309.3z M93.3,206.3c-6.8,2.2-13.3,4.6-19.1,7.1l-4.2-9.1c6.2-2.6,12.9-5,20-7.5L93.3,206.3z
	 M88.8,300.8l-3.5,9.4c-7.1-2.4-13.8-5-19.9-7.9l4.4-9.1C75.6,295.8,82,298.3,88.8,300.8L88.8,300.8z M64.9,217.6
	c-6,2.9-11.7,6.3-17.1,10.1l-6.2-8.1c5.9-4.1,12.1-7.9,18.5-11L64.9,217.6z M60.8,288.9l-5,8.8c-6.4-3.3-12.5-7.3-18.2-11.8l6.6-7.7
	C49.3,282.2,54.9,285.8,60.8,288.9z M40.3,233.8c-5,4.8-8.4,9.8-9.8,14.6l-9.9-2.7c2-6.6,6.2-12.9,12.5-19L40.3,233.8z M37.3,271.7
	l-7.9,6.6c-5.9-6.7-9.2-13.6-10.1-20.7l10.3-1.1C30.3,261.6,32.9,266.7,37.3,271.7L37.3,271.7z"/>
</svg>
