<?xml version="1.0" encoding="utf-8"?>
<!-- Generator: Adobe Illustrator 24.2.1, SVG Export Plug-In . SVG Version: 6.00 Build 0)  -->
<svg version="1.1" id="Layer_1" xmlns="http://www.w3.org/2000/svg" xmlns:xlink="http://www.w3.org/1999/xlink" x="0px" y="0px"
	 viewBox="0 0 512 512" style="enable-background:new 0 0 512 512;" xml:space="preserve">
<style type="text/css">
	.st0{fill:url(#SVGID_1_);}
	.st1{fill:url(#SVGID_2_);}
	.st2{fill:url(#SVGID_3_);}
	.st3{fill:#FF0000;}
</style>
<linearGradient id="SVGID_1_" gradientUnits="userSpaceOnUse" x1="-935.2986" y1="1657.1877" x2="-744.4587" y2="1708.3217" gradientTransform="matrix(1 0 0 -1 1094.11 1937.3101)">
	<stop  offset="0" style="stop-color:#4724FF"/>
	<stop  offset="1" style="stop-color:#FC80FF"/>
</linearGradient>
<path class="st0" d="M254.3,492.7L254.3,492.7c-4.9,0-9.7-1.2-14.1-3.5l4.3-9.3c3,1.6,6.4,2.4,9.8,2.5l0,0c2,0,4.1-0.3,6-0.9
	l2.8,9.9C260.3,492.2,257.3,492.7,254.3,492.7z M273.4,486.1l-5.5-8.6c5-3.8,9.4-8.3,12.9-13.5l8,6.2
	C284.6,476.3,279.4,481.7,273.4,486.1z M230.8,482.7c-5.4-5-10.1-10.7-13.9-16.9l8.3-5.7c3.3,5.5,7.4,10.4,12.1,14.8L230.8,482.7z
	 M294.6,461l-8.5-5.3c3.3-5.8,6.2-11.9,8.8-18l9,4.1C301.2,448.4,298.1,454.8,294.6,461L294.6,461z M211.4,456.4
	c-3.3-6.3-6.2-12.8-8.8-19.5l9.2-3.9c2.4,6.3,5.2,12.4,8.3,18.4L211.4,456.4z M307.8,431.8l-9.3-3.7c2.2-6,4.3-12.6,6.3-19.5l9.5,3
	C312.3,418.7,310.1,425.5,307.8,431.8L307.8,431.8z M198.9,426.9c-2.2-6.4-4.3-13.2-6.2-20.3l9.5-2.8c1.9,6.9,3.9,13.5,6,19.6
	L198.9,426.9z M317.1,401.3l-9.6-2.7c1.6-6.4,3.2-13.2,4.6-20.1l9.7,2.2C320.4,387.8,318.8,394.8,317.1,401.3L317.1,401.3z
	 M190.1,396.3c-1.6-6.6-3.1-13.6-4.5-20.7l9.7-2c1.3,6.9,2.8,13.7,4.4,20.2L190.1,396.3z M323.8,370.3l-9.7-1.9
	c1.2-6.6,2.3-13.5,3.3-20.5l9.8,1.5C326.2,356.5,325.1,363.5,323.8,370.3L323.8,370.3z M183.7,365.2c-1.2-6.8-2.2-13.8-3.2-20.9
	l9.8-1.4c0.9,7,2,13.9,3.1,20.5L183.7,365.2z M328.5,338.9l-9.8-1.3c0.8-6.7,1.6-13.7,2.2-20.7l9.9,1
	C330.2,325,329.4,332.1,328.5,338.9L328.5,338.9z M179.2,333.8c-0.8-6.9-1.5-14-2-21l9.9-0.9c0.6,7,1.2,13.9,2,20.7L179.2,333.8z
	 M331.6,307.4l-9.9-0.8c0.5-6.8,0.9-13.8,1.2-20.8l9.9,0.5C332.6,293.3,332.2,300.4,331.6,307.4L331.6,307.4z M176.4,302.2
	c-0.5-6.9-0.8-14.1-1.1-21.1l9.9-0.4c0.3,6.9,0.6,13.9,1.1,20.8L176.4,302.2z M333.2,275.7l-9.9-0.3c0.2-6.9,0.3-13.9,0.3-20.8v-0.3
	h9.9v0.3C333.6,261.6,333.5,268.8,333.2,275.7L333.2,275.7z M175,270.6c-0.1-5.3-0.2-10.7-0.2-16c0-1.7,0-3.4,0-5.1l9.9,0.1v5
	c0,5.2,0.1,10.5,0.2,15.8L175,270.6z M323.6,243.9c-0.1-6.9-0.3-13.9-0.6-20.8l9.9-0.5c0.3,7,0.5,14.1,0.6,21.1L323.6,243.9z
	 M185,239.1l-9.9-0.2c0.2-7,0.4-14.2,0.8-21.1l9.9,0.5C185.4,225.2,185.1,232.2,185,239.1z M322.5,212.7c-0.4-7-0.9-13.9-1.5-20.7
	l9.9-1c0.6,6.9,1.1,14,1.6,21.1L322.5,212.7z M186.3,208l-9.9-0.7c0.5-7,1-14.2,1.7-21.1l9.9,1C187.4,194,186.8,201,186.3,208z
	 M320,181.6c-0.7-7-1.6-13.9-2.6-20.6l9.8-1.5c1,6.8,1.8,13.9,2.6,21L320,181.6z M189.2,176.9l-9.9-1.2c0.8-7,1.7-14.1,2.8-21
	l9.8,1.6C190.8,163,189.9,169.9,189.2,176.9L189.2,176.9z M315.8,150.8c-1.1-7-2.4-13.8-3.7-20.4l9.7-2.2c1.4,6.7,2.6,13.7,3.8,20.8
	L315.8,150.8z M193.5,146.1l-9.8-1.8c1.2-7.1,2.6-14.1,4-20.8l9.6,2.2C196,132.3,194.6,139.1,193.5,146.1z M309.9,120.3
	c-1.6-6.9-3.3-13.6-5.1-20l9.5-3c1.9,6.5,3.6,13.4,5.3,20.5L309.9,120.3z M199.7,115.7l-9.6-2.5c1.7-7.1,3.6-14,5.5-20.5l9.4,3.1
	C203.1,102.1,201.4,108.8,199.7,115.7L199.7,115.7z M301.8,90.5c-2.2-6.8-4.6-13.3-7-19.2l9-4.2c2.6,6.2,5,12.9,7.3,20L301.8,90.5z
	 M208.2,86.1l-9.3-3.5c2.4-7.1,5-13.8,7.8-19.9l9,4.4C213,72.8,210.5,79.2,208.2,86.1L208.2,86.1z M290.6,62.2
	c-2.9-6-6.2-11.7-10-17.1l8-6.2c4.1,5.9,7.8,12.1,10.9,18.6L290.6,62.2z M220,58.1l-8.7-5c3.3-6.4,7.2-12.5,11.7-18.2l7.6,6.6
	C226.5,46.7,223,52.2,220,58.1L220,58.1z M274.6,37.6c-4.8-5-9.7-8.4-14.5-9.8l2.7-9.9c6.5,2,12.8,6.2,18.8,12.5L274.6,37.6z
	 M237,34.5l-6.5-7.9c6.5-5.9,13.4-9.2,20.5-10.1l1.1,10.3C247.1,27.5,242,30.1,237,34.5z"/>
<linearGradient id="SVGID_2_" gradientUnits="userSpaceOnUse" x1="332.3204" y1="-249.7522" x2="80.5991" y2="1.9691" gradientTransform="matrix(6.123234e-17 -1 -1 -6.123234e-17 130.66 461.19)">
	<stop  offset="0" style="stop-color:#FC80FF"/>
	<stop  offset="1" style="stop-color:#4724FF"/>
</linearGradient>
<path class="st1" d="M492.6,254.7L492.6,254.7c0,4.9-1.2,9.7-3.5,14.1l-9.3-4.3c1.6-3,2.4-6.4,2.5-9.8l0,0c0-2-0.3-4.1-0.9-6
	l9.9-2.8C492.1,248.7,492.6,251.7,492.6,254.7z M486,235.5l-8.6,5.5c-3.8-5-8.3-9.4-13.5-12.9l6.2-8
	C476.2,224.4,481.6,229.5,486,235.5z M482.6,278.2c-5,5.4-10.6,10.1-16.9,14l-5.7-8.3c5.5-3.3,10.4-7.4,14.8-12.1L482.6,278.2z
	 M460.9,214.4l-5.3,8.5c-5.8-3.3-11.9-6.3-18.1-8.8l4.1-9.1C448.3,207.7,454.7,210.8,460.9,214.4L460.9,214.4z M456.4,297.5
	c-6.3,3.3-12.8,6.2-19.5,8.8l-3.9-9.2c6.3-2.4,12.4-5.2,18.4-8.3L456.4,297.5z M431.7,201.1l-3.7,9.3c-6-2.2-12.6-4.3-19.5-6.3
	l3-9.5C418.6,196.6,425.4,198.8,431.7,201.1z M426.9,310c-6.4,2.2-13.2,4.3-20.3,6.2l-2.8-9.5c6.9-1.9,13.5-3.9,19.6-6L426.9,310z
	 M401.3,191.8l-2.7,9.6c-6.4-1.6-13.2-3.2-20.1-4.6l2.2-9.7C387.7,188.5,394.7,190.1,401.3,191.8L401.3,191.8z M396.3,318.8
	c-6.6,1.6-13.6,3.1-20.7,4.5l-2-9.7c6.9-1.3,13.7-2.8,20.2-4.4L396.3,318.8z M370.2,185.1l-1.9,9.8c-6.6-1.2-13.5-2.3-20.5-3.3
	l1.5-9.8C356.4,182.7,363.5,183.8,370.2,185.1z M365.2,325.2c-6.8,1.2-13.8,2.2-20.9,3.2l-1.4-9.8c7-0.9,13.9-2,20.5-3.1
	L365.2,325.2z M338.9,180.3l-1.3,9.8c-6.7-0.8-13.7-1.6-20.7-2.2l1-9.9C324.9,178.8,332,179.5,338.9,180.3z M333.8,329.6
	c-6.9,0.8-14,1.5-21,2.1l-0.9-9.9c7-0.6,13.9-1.2,20.7-2L333.8,329.6z M307.3,177.3l-0.8,9.9c-6.8-0.5-13.8-0.9-20.8-1.2l0.5-9.9
	C293.3,176.3,300.4,176.8,307.3,177.3z M302.2,332.5c-6.9,0.5-14.1,0.8-21.1,1.1l-0.4-9.9c6.9-0.3,13.9-0.6,20.8-1.1L302.2,332.5z
	 M275.7,175.7l-0.3,9.9c-6.9-0.2-13.9-0.3-20.8-0.3h-0.3v-9.9h0.3C261.6,175.4,268.7,175.5,275.7,175.7L275.7,175.7z M270.5,333.9
	c-5.3,0.1-10.7,0.2-16,0.2c-1.7,0-3.4,0-5.1,0l0.1-9.9c1.7,0,3.4,0,5,0c5.2,0,10.5-0.1,15.8-0.2L270.5,333.9z M243.9,185.3
	c-6.9,0.1-13.9,0.3-20.8,0.6l-0.5-9.9c7-0.3,14.1-0.5,21.1-0.6L243.9,185.3z M239.1,323.9l-0.2,9.9c-7-0.1-14.2-0.4-21.1-0.7
	l0.5-9.9C225.1,323.6,232.1,323.8,239.1,323.9L239.1,323.9z M212.7,186.5c-7,0.4-13.9,0.9-20.7,1.5l-1-9.9c6.9-0.6,14-1.1,21.1-1.6
	L212.7,186.5z M207.9,322.6l-0.7,9.9c-7-0.5-14.2-1-21.1-1.7l1-9.9C194,321.6,200.9,322.1,207.9,322.6L207.9,322.6z M181.6,189
	c-7,0.7-13.9,1.6-20.6,2.5l-1.5-9.8c6.8-1,13.9-1.8,21-2.6L181.6,189z M176.8,319.8l-1.2,9.9c-7.1-0.8-14.1-1.7-21-2.8l1.6-9.8
	C163,318.1,169.9,319,176.8,319.8z M150.7,193.2c-7,1.1-13.8,2.4-20.4,3.7l-2.2-9.7c6.7-1.4,13.7-2.6,20.8-3.8L150.7,193.2z
	 M146.1,315.5l-1.8,9.8c-7.1-1.2-14.1-2.6-20.8-4l2.3-9.7C132.2,313,139,314.3,146.1,315.5z M120.2,199c-6.9,1.6-13.6,3.3-20,5.1
	l-3-9.5c6.5-1.9,13.4-3.6,20.5-5.3L120.2,199z M115.6,309.3l-2.5,9.6c-7.1-1.7-14-3.6-20.5-5.5l3.1-9.5
	C102,305.8,108.7,307.6,115.6,309.3z M90.5,207.1c-6.8,2.2-13.3,4.6-19.1,7l-4.2-9c6.2-2.6,12.9-5,20-7.4L90.5,207.1z M86,300.8
	l-3.5,9.3c-7.1-2.4-13.8-5-19.9-7.8l4.4-9C72.8,295.9,79.2,298.4,86,300.8L86,300.8z M62.1,218.3c-6,2.9-11.7,6.2-17.1,10l-6.2-8
	c5.9-4.1,12.1-7.8,18.5-10.9L62.1,218.3z M58,289l-5,8.7c-6.4-3.3-12.5-7.2-18.2-11.7l6.6-7.6C46.5,282.4,52.1,286,58,289z
	 M37.5,234.4c-5,4.8-8.4,9.7-9.8,14.5l-9.9-2.7c2-6.5,6.2-12.8,12.5-18.8L37.5,234.4z M34.5,272l-7.9,6.5
	c-5.9-6.6-9.2-13.5-10.1-20.5l10.3-1.1C27.5,261.9,30.1,267,34.5,272L34.5,272z"/>
<linearGradient id="SVGID_3_" gradientUnits="userSpaceOnUse" x1="74.0993" y1="437.9763" x2="437.9765" y2="74.099" gradientTransform="matrix(6.123234e-17 -1 -1 -6.123234e-17 512 512)">
	<stop  offset="0" style="stop-color:#FC80FF"/>
	<stop  offset="1" style="stop-color:#4724FF"/>
</linearGradient>
<path class="st2" d="M512,254.7C511.9,396.8,396.7,512,254.6,512c-68.2,0-133.7-27.1-181.9-75.4c-99-102-96.6-264.9,5.3-363.9
	c99.9-97,258.7-97,358.6,0C485,120.9,512.1,186.4,512,254.7z M16.6,254.7c0,131.4,106.5,238,238,238c63.1,0,123.7-25.1,168.3-69.7
	c92.9-92.9,92.9-243.6,0-336.6s-243.6-92.9-336.6,0C41.6,130.9,16.5,191.5,16.6,254.7z"/>
<path class="st3" d="M415.5,279.9c-4.3,1.9-9.3,0-11.2-4.3c-0.5-1.1-0.7-2.2-0.7-3.4v-34.9c0-4.7,3.8-8.5,8.5-8.5
	c1.2,0,2.3,0.2,3.4,0.7l22.5,10l16.9,7.5c4.3,1.9,6.2,6.9,4.3,11.2c-0.9,1.9-2.4,3.5-4.3,4.3L438,270L415.5,279.9z"/>
</svg>
