<?xml version="1.0" encoding="utf-8"?>
<!-- Generator: Adobe Illustrator 24.2.1, SVG Export Plug-In . SVG Version: 6.00 Build 0)  -->
<svg version="1.1" id="Layer_1" xmlns="http://www.w3.org/2000/svg" xmlns:xlink="http://www.w3.org/1999/xlink" x="0px" y="0px"
	 viewBox="0 0 512 512" style="enable-background:new 0 0 512 512;" xml:space="preserve">
<style type="text/css">
	.st0{fill:url(#SVGID_1_);}
	.st1{fill:url(#SVGID_2_);}
	.st2{fill:url(#SVGID_3_);}
</style>
<linearGradient id="SVGID_1_" gradientUnits="userSpaceOnUse" x1="-1657.3971" y1="3833.2651" x2="-1903.991" y2="3586.6709" gradientTransform="matrix(1 0 0 1 2036.7776 -3455.3577)">
	<stop  offset="0" style="stop-color:#FC80FF"/>
	<stop  offset="1" style="stop-color:#4724FF"/>
</linearGradient>
<path class="st0" d="M256.1,487L256.1,487c-4.9,0-9.8-1.2-14.2-3.4l4.3-9.1c3,1.6,6.5,2.3,9.9,2.4l0,0c2,0,4.1-0.3,6-0.9l2.8,9.7
	C262.1,486.5,259.1,487,256.1,487z M275.4,480.6l-5.5-8.4c5-3.7,9.5-8.1,13-13.2l8.1,6.1C286.6,471,281.5,476.3,275.4,480.6z
	 M232.4,477.3c-5.4-4.9-10.2-10.4-14.1-16.5l8.4-5.6c3.3,5.4,7.5,10.2,12.2,14.5L232.4,477.3z M296.7,456.1l-8.6-5.2
	c3.3-5.7,6.4-11.6,8.9-17.7l9.2,4C303.4,443.8,300.3,450,296.7,456.1L296.7,456.1z M212.9,451.7c-3.3-6.2-6.3-12.5-8.9-19l9.3-3.8
	c2.4,6.2,5.2,12.1,8.4,18L212.9,451.7z M310.1,427.6l-9.4-3.6c2.2-5.9,4.3-12.3,6.4-19l9.6,2.9C314.6,414.8,312.4,421.4,310.1,427.6
	z M200.3,422.9c-2.2-6.2-4.3-12.9-6.3-19.8l9.6-2.7c1.9,6.7,3.9,13.2,6,19.1L200.3,422.9z M319.5,397.9l-9.7-2.6
	c1.6-6.2,3.2-12.9,4.6-19.6l9.8,2.1C322.8,384.6,321.2,391.4,319.5,397.9L319.5,397.9z M191.4,393c-1.6-6.4-3.1-13.3-4.5-20.2l9.8-2
	c1.3,6.7,2.8,13.4,4.4,19.7L191.4,393z M326.2,367.5l-9.9-1.9c1.2-6.4,2.3-13.2,3.3-20l9.9,1.5C328.6,354,327.5,361,326.2,367.5z
	 M185,362.6c-1.2-6.6-2.2-13.5-3.2-20.4l9.9-1.4c0.9,6.8,2,13.6,3.1,20L185,362.6z M331.1,336.9l-9.9-1.3c0.8-6.5,1.6-13.4,2.2-20.2
	l10,1C332.6,323.3,331.9,330.2,331.1,336.9z M180.5,332c-0.8-6.7-1.5-13.7-2.1-20.5l10-0.9c0.6,6.8,1.2,13.6,2,20.2L180.5,332z
	 M334.1,306.1l-10-0.8c0.5-6.6,0.9-13.5,1.2-20.3l10,0.5C335.1,292.4,334.6,299.3,334.1,306.1z M177.6,301.1
	c-0.5-6.7-0.8-13.8-1.1-20.6l10-0.4c0.3,6.7,0.6,13.6,1.1,20.3L177.6,301.1z M335.7,275.2l-10-0.3c0.2-6.7,0.3-13.6,0.3-20.3v-0.3
	h10v0.3C336,261.5,335.9,268.4,335.7,275.2L335.7,275.2z M176.2,270.1c-0.1-5.2-0.2-10.4-0.2-15.6c0-1.7,0-3.3,0-5l10,0.1
	c0,1.7,0,3.3,0,4.9c0,5.1,0.1,10.3,0.2,15.4L176.2,270.1z M326,244.2c-0.1-6.7-0.3-13.6-0.6-20.3l10-0.5c0.3,6.8,0.5,13.8,0.6,20.6
	L326,244.2z M186.3,239.5l-10-0.2c0.1-6.8,0.4-13.9,0.7-20.6l10,0.5C186.6,225.9,186.4,232.6,186.3,239.5L186.3,239.5z M324.8,213.8
	c-0.4-6.8-0.9-13.6-1.5-20.2l10-1c0.6,6.7,1.1,13.7,1.6,20.6L324.8,213.8z M187.6,209.1l-10-0.7c0.5-6.8,1-13.9,1.7-20.6l10,1
	C188.6,195.5,188.1,202.3,187.6,209.1L187.6,209.1z M322.3,183.4c-0.7-6.8-1.6-13.6-2.5-20.1l9.9-1.5c1,6.6,1.8,13.6,2.6,20.5
	L322.3,183.4z M190.4,178.7l-10-1.2c0.8-6.9,1.7-13.8,2.8-20.5l9.9,1.6C192.1,165.3,191.2,172,190.4,178.7z M318.1,153.3
	c-1.1-6.8-2.4-13.5-3.7-19.9l9.8-2.1c1.4,6.5,2.6,13.4,3.8,20.3L318.1,153.3z M194.8,148.8l-9.9-1.8c1.2-6.9,2.6-13.8,4-20.3
	l9.8,2.2C197.3,135.2,196,141.8,194.8,148.8z M312.2,123.5c-1.6-6.7-3.3-13.3-5.1-19.5l9.6-2.9c1.9,6.3,3.6,13.1,5.3,20L312.2,123.5
	z M201,119l-9.7-2.4c1.7-6.9,3.6-13.7,5.5-20l9.6,3C204.5,105.7,202.7,112.2,201,119z M304,94.5c-2.2-6.6-4.6-13-7.1-18.7l9.1-4.1
	c2.6,6.1,5,12.6,7.5,19.5L304,94.5z M209.6,90.1l-9.4-3.4c2.4-6.9,5-13.5,7.9-19.4l9.1,4.3C214.5,77.2,212,83.4,209.6,90.1
	L209.6,90.1z M292.7,66.7c-2.9-5.9-6.3-11.4-10.1-16.7l8.1-6.1c4.1,5.8,7.9,11.8,11,18.1L292.7,66.7z M221.5,62.7l-8.8-4.9
	c3.3-6.2,7.3-12.2,11.8-17.8l7.7,6.4C228.1,51.5,224.5,57,221.5,62.7z M276.5,42.7c-4.8-4.9-9.8-8.2-14.6-9.6l2.7-9.7
	c6.6,2,12.9,6.1,19,12.2L276.5,42.7z M238.6,39.8l-6.6-7.7c6.7-5.8,13.6-9,20.7-9.9l1.1,10.1C248.8,33,243.6,35.5,238.6,39.8
	L238.6,39.8z"/>
<linearGradient id="SVGID_2_" gradientUnits="userSpaceOnUse" x1="-1907.5859" y1="3152.3357" x2="-1552.2357" y2="3507.6858" gradientTransform="matrix(1 0 0 1 1985.9677 -3074.0176)">
	<stop  offset="0" style="stop-color:#FC80FF"/>
	<stop  offset="1" style="stop-color:#4724FF"/>
</linearGradient>
<path class="st1" d="M257.3,506C118.5,505.9,6,393.4,6,254.6C6,188,32.5,124.1,79.7,77c99.6-96.7,258.7-94.3,355.3,5.2
	c94.7,97.6,94.7,252.6,0,350.2C387.9,479.6,324,506.1,257.3,506z M257.3,22.2c-128.3,0-232.4,104-232.4,232.4
	c0,61.6,24.5,120.8,68.1,164.4c90.7,90.7,237.9,90.7,328.7,0s90.7-237.9,0-328.7C378.2,46.6,319,22.1,257.3,22.2z"/>
<linearGradient id="SVGID_3_" gradientUnits="userSpaceOnUse" x1="-3458.6494" y1="3011.0471" x2="-3212.1228" y2="2764.5205" gradientTransform="matrix(6.123234e-17 -1 1 6.123234e-17 -2630.5234 -3081.1196)">
	<stop  offset="0" style="stop-color:#FC80FF"/>
	<stop  offset="1" style="stop-color:#4724FF"/>
</linearGradient>
<path class="st2" d="M489.7,254.3L489.7,254.3c0,4.9-1.2,9.8-3.4,14.2l-9.1-4.3c1.6-3,2.3-6.5,2.4-9.9l0,0c0-2-0.3-4.1-0.9-6
	l9.7-2.8C489.2,248.2,489.7,251.3,489.7,254.3z M483.2,234.9l-8.4,5.5c-3.7-5-8.1-9.5-13.2-13l6.1-8.1
	C473.7,223.7,478.9,228.9,483.2,234.9z M479.9,278c-4.9,5.4-10.4,10.2-16.5,14.1l-5.6-8.4c5.4-3.3,10.2-7.5,14.5-12.2L479.9,278z
	 M458.7,213.7l-5.2,8.6c-5.7-3.3-11.6-6.4-17.7-8.9l4-9.2C446.4,206.9,452.7,210,458.7,213.7L458.7,213.7z M454.3,297.4
	c-6.2,3.3-12.5,6.3-19,8.9l-3.8-9.3c6.2-2.4,12.1-5.2,18-8.4L454.3,297.4z M430.2,200.3l-3.6,9.4c-5.9-2.2-12.3-4.3-19-6.4l2.9-9.6
	C417.4,195.7,424,197.9,430.2,200.3z M425.5,310c-6.2,2.2-12.9,4.3-19.8,6.3l-2.7-9.6c6.7-1.9,13.2-3.9,19.1-6L425.5,310z
	 M400.5,190.9l-2.6,9.7c-6.2-1.6-12.9-3.2-19.6-4.6l2.1-9.8C387.2,187.5,394.1,189.2,400.5,190.9L400.5,190.9z M395.6,318.9
	c-6.4,1.6-13.3,3.1-20.2,4.5l-2-9.8c6.7-1.3,13.4-2.8,19.7-4.4L395.6,318.9z M370.1,184.1l-1.9,9.9c-6.4-1.2-13.2-2.3-20-3.3
	l1.5-9.9C356.7,181.7,363.6,182.8,370.1,184.1z M365.3,325.4c-6.6,1.2-13.5,2.2-20.4,3.2l-1.4-9.9c6.8-0.9,13.6-2,20-3.1
	L365.3,325.4z M339.6,179.3l-1.3,9.9c-6.5-0.8-13.4-1.6-20.2-2.2l1-10C325.9,177.8,332.8,178.5,339.6,179.3z M334.6,329.8
	c-6.7,0.8-13.7,1.5-20.5,2.1l-0.9-10c6.8-0.6,13.6-1.2,20.2-2L334.6,329.8z M308.7,176.3l-0.8,10c-6.6-0.5-13.5-0.9-20.3-1.2l0.5-10
	C295.1,175.2,302,175.8,308.7,176.3z M303.7,332.7c-6.7,0.5-13.8,0.8-20.6,1.1l-0.4-10c6.7-0.3,13.6-0.6,20.3-1.1L303.7,332.7z
	 M277.9,174.6l-0.3,10c-6.7-0.2-13.6-0.3-20.3-0.3H257v-10h0.3C264.1,174.3,271,174.4,277.9,174.6L277.9,174.6z M272.8,334.1
	c-5.2,0.1-10.4,0.2-15.6,0.2c-1.7,0-3.3,0-5,0l0.1-10c1.7,0,3.3,0,4.9,0c5.1,0,10.3-0.1,15.4-0.2L272.8,334.1z M246.8,184.3
	c-6.7,0.1-13.6,0.3-20.3,0.6l-0.5-10c6.8-0.3,13.8-0.5,20.6-0.6L246.8,184.3z M242.1,324.1l-0.2,10c-6.8-0.1-13.9-0.4-20.6-0.7
	l0.5-10C228.5,323.8,235.3,324,242.1,324.1L242.1,324.1z M216.4,185.5c-6.8,0.4-13.6,0.9-20.2,1.5l-1-10c6.7-0.6,13.7-1.1,20.6-1.6
	L216.4,185.5z M211.7,322.7l-0.7,10c-6.8-0.5-13.9-1-20.6-1.7l1-10C198.1,321.7,204.8,322.2,211.7,322.7L211.7,322.7z M186.1,188.1
	c-6.8,0.7-13.6,1.6-20.1,2.5l-1.5-9.9c6.6-1,13.6-1.8,20.5-2.6L186.1,188.1z M181.4,319.9l-1.2,10c-6.9-0.8-13.8-1.7-20.5-2.8
	l1.6-9.9C167.9,318.2,174.7,319.1,181.4,319.9z M155.9,192.3c-6.8,1.1-13.5,2.4-19.9,3.7l-2.1-9.8c6.5-1.4,13.4-2.6,20.3-3.8
	L155.9,192.3z M151.4,315.6l-1.8,9.9c-6.9-1.2-13.8-2.6-20.3-4l2.2-9.8C137.8,313.1,144.5,314.4,151.4,315.6z M126.1,198.1
	c-6.7,1.6-13.3,3.3-19.5,5.1l-2.9-9.6c6.3-1.9,13.1-3.6,20-5.3L126.1,198.1z M121.6,309.3l-2.4,9.7c-6.9-1.7-13.7-3.6-20-5.5l3-9.6
	C108.4,305.8,114.9,307.6,121.6,309.3z M97.1,206.3c-6.6,2.2-13,4.6-18.7,7.1l-4.1-9.1c6.1-2.6,12.6-5,19.5-7.5L97.1,206.3z
	 M92.7,300.8l-3.4,9.4c-6.9-2.4-13.5-5-19.4-7.9l4.3-9.1C79.8,295.8,86.1,298.3,92.7,300.8L92.7,300.8z M69.4,217.6
	c-5.9,2.9-11.4,6.3-16.7,10.1l-6.1-8.1c5.8-4.1,11.8-7.9,18.1-11L69.4,217.6z M65.4,288.9l-4.9,8.8c-6.2-3.3-12.2-7.3-17.8-11.8
	l6.4-7.7C54.2,282.2,59.6,285.8,65.4,288.9z M45.4,233.8c-4.9,4.8-8.2,9.8-9.6,14.6l-9.7-2.7c2-6.6,6.1-12.9,12.2-19L45.4,233.8z
	 M42.4,271.7l-7.7,6.6c-5.8-6.7-9-13.6-9.9-20.7l10.1-1.1C35.6,261.6,38.2,266.7,42.4,271.7L42.4,271.7z"/>
</svg>
