<svg id="Layer_1" data-name="Layer 1" xmlns="http://www.w3.org/2000/svg" viewBox="0 0 768 512"><path d="M766,248.12l-.06-.14L665.75,48.18c-4.06-8.53-10.82-13-19.56-13a21.49,21.49,0,0,0-15.27,5.94,20.08,20.08,0,0,0-6.41,15.2,20.53,20.53,0,0,0,2.14,9.24L723.5,258.16l-95.06,188c-1.55,2.31-2.31,5.45-2.31,9.57a20.08,20.08,0,0,0,6.41,15.2,21.55,21.55,0,0,0,15.27,5.94c5.8,0,13.88-2.24,19.54-13l98-194.31a25.76,25.76,0,0,0,.66-21.44Z"/><path d="M21.48,35.15A20.8,20.8,0,0,0,6.32,41.47,20.8,20.8,0,0,0,0,56.63V455.37a20.58,20.58,0,0,0,6.4,15.45,21.17,21.17,0,0,0,15.08,6A20.91,20.91,0,0,0,43,455.37V56.63a21.22,21.22,0,0,0-6-15.09A20.58,20.58,0,0,0,21.48,35.15Z"/><path d="M316.62,272.16l29.51-75.88.09-.25a20,20,0,0,0,.71-2.89,15.47,15.47,0,0,0,.25-2.58,18.7,18.7,0,0,0-5.12-13.4,17.57,17.57,0,0,0-13-5.46,18.57,18.57,0,0,0-11.1,3.26,17.7,17.7,0,0,0-6.4,8.95l-14.25,40.25a108.06,108.06,0,0,0-21.06-29.36C260.05,179,238.13,171,211.09,171c-19.83,0-37.34,4.75-52.06,14.1a95,95,0,0,0-34.11,37.66C117,238.3,113,255.92,113,275.11c0,19.94,4.33,38,12.87,53.55a96.19,96.19,0,0,0,35,36.88A93.84,93.84,0,0,0,210,378.87c13.64,0,25.83-2.23,36.23-6.61a79.67,79.67,0,0,0,27.28-18.95,132.2,132.2,0,0,0,20-28.24c1.3-2.45,2.59-5,3.86-7.54l19.21,48.89c3.11,8.1,9.63,12.39,18.34,12.09H335a17,17,0,0,0,12.44-6.08,20.13,20.13,0,0,0,4.33-13.12v-1.95a9.08,9.08,0,0,0-1.25-4.6Zm-107-66.66a69.84,69.84,0,0,1,28.85,6c8.58,3.86,16.55,11.1,23.68,21.53,6.59,9.64,12.61,23.15,17.92,40.22l-.15.11.84,2.12c0,.15.09.31.14.46-2.39,6-4.89,11.93-7.47,17.8a132.24,132.24,0,0,1-15.06,26,65.44,65.44,0,0,1-20,17.84C231,341.83,221.76,344,211.09,344a55.34,55.34,0,0,1-31.33-9.11,65.77,65.77,0,0,1-22-24.79,74.85,74.85,0,0,1-8.13-35,79.48,79.48,0,0,1,7.67-35,65.32,65.32,0,0,1,21.12-25.27C187.26,208.66,197.76,205.5,209.67,205.5Z"/><path d="M594,258.36a70.69,70.69,0,0,0-19.08-28.48c-6.56-6.1-15-10.82-25.28-14.1a52.7,52.7,0,0,0,15.92-17.24,64.88,64.88,0,0,0,8.65-32.5c0-16.81-3.93-31.14-11.7-42.59a71,71,0,0,0-30.91-25.58c-12.55-5.46-26.67-8.23-42-8.23-18.8,0-35.29,4-49,11.85a80.43,80.43,0,0,0-32,33.67c-7.32,14.27-11,31.35-11,50.78V441.37c0,5.61,1.74,10.21,5.19,13.66s8,5.19,13.66,5.19A18.14,18.14,0,0,0,429.73,455c3.44-3.45,5.19-8,5.19-13.66V350.92l.19.21A84.87,84.87,0,0,0,450.4,364a89.44,89.44,0,0,0,22.76,10.57c9,2.86,19.66,4.32,31.72,4.32a101.06,101.06,0,0,0,47.25-11.23,87.62,87.62,0,0,0,34.45-32c8.51-13.77,12.82-29.95,12.82-48.1A89.09,89.09,0,0,0,594,258.36ZM488.89,123.8A72.42,72.42,0,0,1,513,128a41.13,41.13,0,0,1,18.71,13.32c4.81,6,7.26,14.75,7.26,25.84A42.11,42.11,0,0,1,534.38,187c-3,5.64-7.56,10-14,13.34s-15.38,5.13-26.13,5.13H472.55a16.68,16.68,0,0,0-12.76,5.37,17.92,17.92,0,0,0-4.67,12.42,17.5,17.5,0,0,0,4.66,12.06,16.72,16.72,0,0,0,12.77,5.37h24.51a172.86,172.86,0,0,1,27.79,2.07,58.07,58.07,0,0,1,20.61,7.16,33.68,33.68,0,0,1,12.85,14.3c3.19,6.37,4.81,14.82,4.81,25.12a57.45,57.45,0,0,1-3.28,18.62,56.11,56.11,0,0,1-10.29,17.76,50.35,50.35,0,0,1-18.12,13.23C524,342.3,514.78,344,504.17,344a79.76,79.76,0,0,1-33.44-7.36,61.71,61.71,0,0,1-26-22.72c-6.76-10.25-10.18-23.78-10.18-40.21l.35-87.06a103.1,103.1,0,0,1,3.21-26.6,53.15,53.15,0,0,1,9.55-19.66A41.61,41.61,0,0,1,464,128.19C470.84,125.27,479.2,123.8,488.89,123.8Z"/></svg>