<svg id="Layer_1" data-name="Layer 1" xmlns="http://www.w3.org/2000/svg" viewBox="0 0 512 512"><path d="M293.29,101.54C277.08,86.88,257,79.45,233.66,79.45c-22.76,0-42.59,7.35-58.93,21.84-16.1,14.27-28.45,34.93-36.72,61.39-8.15,26.07-12.28,57.39-12.28,93.1,0,36.3,4.13,67.85,12.28,93.76,8.27,26.33,20.63,46.91,36.72,61.17,16.34,14.49,36.17,21.84,58.93,21.84,23.37,0,43.43-7.43,59.63-22.09,15.93-14.4,28.19-35,36.47-61.36,8.15-25.93,12.28-57.33,12.28-93.32,0-35.4-4.13-66.57-12.28-92.66C321.48,136.67,309.22,116,293.29,101.54ZM298,255.78c0,26.08-2.46,49.59-7.32,69.89C286,345.55,278.64,361.3,269,372.48c-9.35,10.81-20.9,16.07-35.32,16.07-14.11,0-25.43-5.25-34.63-16-9.54-11.2-16.87-26.9-21.77-46.66-5-20.12-7.53-43.69-7.53-70.07,0-25.79,2.54-49.14,7.54-69.42,4.9-19.9,12.22-35.67,21.76-46.87,9.19-10.79,20.52-16,34.63-16s25.52,5.31,34.86,16.25c9.68,11.35,17.08,27.13,22,46.88C295.5,206.73,298,230,298,255.78Z"/><path d="M510,248.12l-.06-.14L409.75,48.18c-4.06-8.53-10.82-13-19.56-13a21.49,21.49,0,0,0-15.27,5.94,20.08,20.08,0,0,0-6.41,15.2,20.53,20.53,0,0,0,2.14,9.24L467.5,258.16l-95.06,188c-1.55,2.31-2.31,5.45-2.31,9.57a20.08,20.08,0,0,0,6.41,15.2,21.51,21.51,0,0,0,15.27,5.94c5.8,0,13.88-2.24,19.54-13l98-194.31a25.76,25.76,0,0,0,.66-21.44Z"/><path d="M21.48,35.15A20.8,20.8,0,0,0,6.32,41.47,20.8,20.8,0,0,0,0,56.63V455.37a20.58,20.58,0,0,0,6.4,15.45,21.17,21.17,0,0,0,15.08,6A20.91,20.91,0,0,0,43,455.37V56.63a21.18,21.18,0,0,0-6-15.08A20.55,20.55,0,0,0,21.48,35.15Z"/></svg>