<svg id="Layer_1" data-name="Layer 1" xmlns="http://www.w3.org/2000/svg" viewBox="0 0 512 512"><path d="M510,248.12l-.06-.14L409.75,48.18c-4.06-8.53-10.82-13-19.56-13a21.49,21.49,0,0,0-15.27,5.94,20.08,20.08,0,0,0-6.41,15.2,20.53,20.53,0,0,0,2.14,9.24L467.5,258.16l-95.06,188c-1.55,2.31-2.31,5.45-2.31,9.57a20.08,20.08,0,0,0,6.41,15.2,21.51,21.51,0,0,0,15.27,5.94c5.8,0,13.88-2.24,19.54-13l98-194.31a25.76,25.76,0,0,0,.66-21.44Z"/><path d="M21.48,35.15A20.8,20.8,0,0,0,6.32,41.47,20.8,20.8,0,0,0,0,56.63V455.37a20.58,20.58,0,0,0,6.4,15.45,21.17,21.17,0,0,0,15.08,6A20.91,20.91,0,0,0,43,455.37V56.63a21.18,21.18,0,0,0-6-15.08A20.55,20.55,0,0,0,21.48,35.15Z"/><path d="M323.11,253.23l29.51-75.88.09-.25a20,20,0,0,0,.72-2.89,16.47,16.47,0,0,0,.24-2.58,18.72,18.72,0,0,0-5.12-13.4,17.55,17.55,0,0,0-13-5.46A18.6,18.6,0,0,0,324.42,156,17.7,17.7,0,0,0,318,165l-14.25,40.25a108.06,108.06,0,0,0-21.06-29.36c-16.17-15.8-38.08-23.81-65.13-23.81-19.82,0-37.34,4.75-52.06,14.1a94.87,94.87,0,0,0-34.1,37.66c-7.91,15.55-11.92,33.17-11.92,52.36,0,19.94,4.34,38,12.88,53.56a96.14,96.14,0,0,0,35,36.87,93.88,93.88,0,0,0,49.12,13.33c13.63,0,25.82-2.23,36.22-6.61A79.57,79.57,0,0,0,280,334.38a132.2,132.2,0,0,0,20-28.24c1.31-2.45,2.6-5,3.86-7.54L323,347.49c3.11,8.1,9.63,12.39,18.35,12.09h.13A17,17,0,0,0,354,353.49a20.13,20.13,0,0,0,4.33-13.12v-1.95a9.08,9.08,0,0,0-1.25-4.6Zm-107-66.66a69.8,69.8,0,0,1,28.85,6c8.58,3.86,16.55,11.1,23.69,21.53,6.59,9.64,12.6,23.15,17.91,40.22l-.15.11.84,2.12c0,.15.09.31.14.46-2.39,6-4.89,11.93-7.47,17.8a131.74,131.74,0,0,1-15.06,26,65.44,65.44,0,0,1-20,17.84c-7.48,4.28-16.69,6.45-27.36,6.45A55.34,55.34,0,0,1,186.25,316a65.83,65.83,0,0,1-22-24.79,74.86,74.86,0,0,1-8.14-35,79.48,79.48,0,0,1,7.67-35A65.32,65.32,0,0,1,184.94,196C193.75,189.73,204.25,186.57,216.16,186.57Z"/></svg>