<svg id="Layer_1" data-name="Layer 1" xmlns="http://www.w3.org/2000/svg" viewBox="0 0 512 512"><path d="M510,248.12l-.06-.14L409.75,48.18c-4.06-8.53-10.82-13-19.56-13a21.49,21.49,0,0,0-15.27,5.94,20.08,20.08,0,0,0-6.41,15.2,20.53,20.53,0,0,0,2.14,9.24L467.5,258.16l-95.06,188c-1.55,2.31-2.31,5.45-2.31,9.57a20.08,20.08,0,0,0,6.41,15.2,21.51,21.51,0,0,0,15.27,5.94c5.8,0,13.88-2.24,19.54-13l98-194.31a25.76,25.76,0,0,0,.66-21.44Z"/><path d="M21.48,35.15A20.8,20.8,0,0,0,6.32,41.47,20.8,20.8,0,0,0,0,56.63V455.37a20.58,20.58,0,0,0,6.4,15.45,21.17,21.17,0,0,0,15.08,6A20.91,20.91,0,0,0,43,455.37V56.63a21.18,21.18,0,0,0-6-15.08A20.55,20.55,0,0,0,21.48,35.15Z"/><path d="M239.32,79.45a20.67,20.67,0,0,0-5.46.83,48.59,48.59,0,0,0-5,1.67L161.28,105.2c-5.24,1.87-9,4.85-11.2,8.83a24.62,24.62,0,0,0-3,12,20.9,20.9,0,0,0,6.26,15.31,21.47,21.47,0,0,0,15.77,6.27,26.09,26.09,0,0,0,10.6-2.54l37.17-13V410.53a21.06,21.06,0,0,0,6.56,15.83,21.91,21.91,0,0,0,37.49-15.83V101.47A22.15,22.15,0,0,0,255,86.09,20.37,20.37,0,0,0,239.32,79.45Z"/></svg>