<svg id="Layer_1" data-name="Layer 1" xmlns="http://www.w3.org/2000/svg" viewBox="0 0 512 512"><path d="M510,248.12l-.06-.14L409.75,48.18c-4.06-8.53-10.82-13-19.56-13a21.49,21.49,0,0,0-15.27,5.94,20.08,20.08,0,0,0-6.41,15.2,20.53,20.53,0,0,0,2.14,9.24L467.5,258.16l-95.06,188c-1.55,2.31-2.31,5.45-2.31,9.57a20.08,20.08,0,0,0,6.41,15.2,21.51,21.51,0,0,0,15.27,5.94c5.8,0,13.88-2.24,19.54-13l98-194.31a25.76,25.76,0,0,0,.66-21.44Z"/><path d="M21.48,35.15A20.8,20.8,0,0,0,6.32,41.47,20.8,20.8,0,0,0,0,56.63V455.37a20.58,20.58,0,0,0,6.4,15.45,21.17,21.17,0,0,0,15.08,6A20.91,20.91,0,0,0,43,455.37V56.63a21.18,21.18,0,0,0-6-15.08A20.55,20.55,0,0,0,21.48,35.15Z"/><path d="M333.93,246.45A70.69,70.69,0,0,0,314.85,218c-6.56-6.1-15-10.82-25.28-14.1a52.7,52.7,0,0,0,15.92-17.24,64.84,64.84,0,0,0,8.65-32.49c0-16.81-3.93-31.14-11.7-42.6A71.1,71.1,0,0,0,271.53,86c-12.55-5.46-26.67-8.23-42-8.23-18.8,0-35.29,4-49,11.85a80.39,80.39,0,0,0-32,33.68c-7.32,14.26-11,31.35-11,50.77V429.46c0,5.62,1.74,10.21,5.19,13.66s8,5.19,13.66,5.19a18.1,18.1,0,0,0,13.31-5.19c3.44-3.45,5.19-8.05,5.19-13.66V339l.19.21a84.55,84.55,0,0,0,15.29,12.86,89.44,89.44,0,0,0,22.76,10.56c9,2.87,19.66,4.32,31.72,4.32a101.18,101.18,0,0,0,47.25-11.22,87.72,87.72,0,0,0,34.45-32c8.51-13.76,12.82-30,12.82-48.1A89.09,89.09,0,0,0,333.93,246.45ZM228.85,111.89A72.67,72.67,0,0,1,253,116a41.13,41.13,0,0,1,18.71,13.32c4.81,6.06,7.26,14.75,7.26,25.84a42.11,42.11,0,0,1-4.58,19.87c-3,5.64-7.56,10-14,13.35s-15.38,5.12-26.13,5.12H212.51a16.64,16.64,0,0,0-12.76,5.38,17.9,17.9,0,0,0-4.67,12.41,17.48,17.48,0,0,0,4.66,12.06,16.68,16.68,0,0,0,12.77,5.38H237a172.92,172.92,0,0,1,27.79,2.06A58.07,58.07,0,0,1,285.42,238a33.68,33.68,0,0,1,12.85,14.3c3.19,6.37,4.81,14.82,4.81,25.12A57.45,57.45,0,0,1,299.8,296a56,56,0,0,1-10.29,17.77A50.35,50.35,0,0,1,271.39,327c-7.48,3.36-16.65,5.06-27.26,5.06a79.61,79.61,0,0,1-33.44-7.36,61.71,61.71,0,0,1-26-22.72c-6.76-10.24-10.18-23.78-10.18-40.21l.35-87.06a103,103,0,0,1,3.21-26.59,53.2,53.2,0,0,1,9.55-19.67A41.61,41.61,0,0,1,204,116.28C210.8,113.37,219.16,111.89,228.85,111.89Z"/></svg>