<svg id="Layer_1" data-name="Layer 1" xmlns="http://www.w3.org/2000/svg" viewBox="0 0 768 512"><path d="M766,248.12l-.06-.14L665.75,48.18c-4.06-8.53-10.82-13-19.56-13a21.49,21.49,0,0,0-15.27,5.94,20.08,20.08,0,0,0-6.41,15.2,20.53,20.53,0,0,0,2.14,9.24L723.5,258.16l-95.06,188c-1.55,2.31-2.31,5.45-2.31,9.57a20.08,20.08,0,0,0,6.41,15.2,21.55,21.55,0,0,0,15.27,5.94c5.8,0,13.88-2.24,19.54-13l98-194.31a25.76,25.76,0,0,0,.66-21.44Z"/><path d="M21.48,35.15A20.8,20.8,0,0,0,6.32,41.47,20.8,20.8,0,0,0,0,56.63V455.37a20.58,20.58,0,0,0,6.4,15.45,21.17,21.17,0,0,0,15.08,6A20.91,20.91,0,0,0,43,455.37V56.63a21.22,21.22,0,0,0-6-15.09A20.58,20.58,0,0,0,21.48,35.15Z"/><path d="M235.09,79.45a20.72,20.72,0,0,0-5.46.83,47.63,47.63,0,0,0-5,1.67L157.06,105.2c-5.25,1.87-9,4.85-11.21,8.83a24.72,24.72,0,0,0-3,12,20.9,20.9,0,0,0,6.26,15.31,21.43,21.43,0,0,0,15.76,6.27,26.14,26.14,0,0,0,10.61-2.54l37.17-13V410.53a21.06,21.06,0,0,0,6.56,15.83,21.92,21.92,0,0,0,37.49-15.83V101.47a22.15,22.15,0,0,0-5.89-15.38A20.37,20.37,0,0,0,235.09,79.45Z"/><path d="M509.71,78.46a20.67,20.67,0,0,0-5.46.83,50,50,0,0,0-5,1.66L431.67,104.2c-5.24,1.88-9,4.86-11.2,8.84a24.6,24.6,0,0,0-3,12,20.91,20.91,0,0,0,6.26,15.32,21.43,21.43,0,0,0,15.76,6.27,26.06,26.06,0,0,0,10.6-2.54l37.18-13V409.53a21.08,21.08,0,0,0,6.56,15.84,21.92,21.92,0,0,0,37.49-15.84v-309a22.11,22.11,0,0,0-5.9-15.38A20.37,20.37,0,0,0,509.71,78.46Z"/></svg>