<svg id="Layer_1" data-name="Layer 1" xmlns="http://www.w3.org/2000/svg" xmlns:xlink="http://www.w3.org/1999/xlink" viewBox="0 0 512 512"><defs><style>.cls-1{fill:url(#linear-gradient);}.cls-2{fill:url(#linear-gradient-2);}.cls-3{fill:red;}.cls-4{fill:url(#linear-gradient-3);}</style><linearGradient id="linear-gradient" x1="-1654.82" y1="2749.89" x2="-1906.68" y2="2498.03" gradientTransform="translate(2036.78 -2369.36)" gradientUnits="userSpaceOnUse"><stop offset="0" stop-color="#fc80ff"/><stop offset="1" stop-color="#4724ff"/></linearGradient><linearGradient id="linear-gradient-2" x1="-1911.89" y1="2062.05" x2="-1548.02" y2="2425.93" gradientTransform="translate(1985.97 -1988.02)" xlink:href="#linear-gradient"/><linearGradient id="linear-gradient-3" x1="-389.31" y1="427.69" x2="-137.56" y2="175.93" gradientTransform="translate(-44.52 -9.12) rotate(-90)" xlink:href="#linear-gradient"/></defs><path class="cls-1" d="M256.05,492.57h0a30.75,30.75,0,0,1-14.21-3.5l4.33-9.3a22.56,22.56,0,0,0,9.88,2.5h0a20.62,20.62,0,0,0,6.05-.9l2.82,9.9A32.74,32.74,0,0,1,256.05,492.57Zm19.36-6.6-5.55-8.6a57.26,57.26,0,0,0,13-13.49l8.06,6.19A68.5,68.5,0,0,1,275.41,486Zm-43.05-3.4a81.72,81.72,0,0,1-14.12-16.89l8.37-5.7a68.88,68.88,0,0,0,12.2,14.79Zm64.32-21.69-8.57-5.3a150.08,150.08,0,0,0,8.87-18.1l9.18,4.1a148.78,148.78,0,0,1-9.48,19.3Zm-83.78-4.5A189.37,189.37,0,0,1,204,436.89l9.27-3.9a179.85,179.85,0,0,0,8.37,18.39Zm97.19-24.69-9.38-3.7c2.22-6,4.34-12.6,6.35-19.5l9.58,3C314.63,418.59,312.41,425.39,310.09,431.69Zm-109.79-4.8c-2.22-6.4-4.34-13.2-6.25-20.3l9.57-2.79c1.92,6.89,3.94,13.49,6,19.59ZM319.47,401.3l-9.68-2.7c1.61-6.4,3.22-13.2,4.63-20.1l9.78,2.2c-1.41,7-3,14-4.73,20.6Zm-128-5c-1.62-6.6-3.13-13.6-4.54-20.7l9.78-2c1.31,6.9,2.82,13.7,4.43,20.2Zm134.79-26.09-9.88-1.9c1.21-6.6,2.32-13.5,3.33-20.5l9.88,1.5C328.64,356.41,327.53,363.51,326.22,370.21Zm-141.25-5c-1.21-6.8-2.22-13.8-3.22-20.9l9.88-1.4c.9,7,2,13.9,3.12,20.5Zm146.09-26.29-9.88-1.3c.81-6.7,1.61-13.7,2.22-20.7l10,1C332.57,324.92,331.87,332,331.06,338.92Zm-150.52-5.1c-.81-6.9-1.52-14-2.12-21l10-.9c.61,7,1.21,13.9,2,20.7Zm153.54-26.49-10-.8c.51-6.8.91-13.8,1.21-20.8l10,.5C335.09,293.33,334.59,300.43,334.08,307.33Zm-156.47-5.1c-.5-6.9-.8-14.1-1.11-21.1l10-.4c.3,6.9.6,13.9,1.1,20.8Zm158.09-26.5-10-.3c.2-6.89.3-13.89.3-20.79v-.3h10v.3c0,7-.1,14.1-.3,21.09Zm-159.5-5.19c-.1-5.3-.2-10.7-.2-16v-5.1l10,.1v5c0,5.2.1,10.5.2,15.8ZM326,243.94c-.1-6.89-.3-13.89-.61-20.79l10-.5c.3,7,.5,14.1.6,21.09Zm-139.74-4.79-10-.2c.1-7,.41-14.2.71-21.1l10,.5c-.4,6.8-.61,13.8-.71,20.8Zm138.53-26.4q-.6-10.49-1.51-20.69l10-1c.6,6.9,1.11,14,1.61,21.09ZM187.59,208l-10-.7c.51-7,1-14.2,1.72-21.1l10,1c-.71,6.9-1.21,13.8-1.72,20.8Zm134.7-26.3c-.71-7-1.61-13.89-2.52-20.59l9.88-1.5c1,6.8,1.81,13.9,2.62,21Zm-131.87-4.79-10-1.2c.8-7.1,1.71-14.1,2.82-21l9.88,1.6C192.13,163.07,191.22,170,190.42,176.87Zm127.63-26.1c-1.1-7-2.42-13.79-3.73-20.39l9.78-2.2c1.41,6.7,2.62,13.7,3.83,20.79Zm-123.3-4.6-9.88-1.79c1.21-7.1,2.62-14.1,4-20.8l9.78,2.3C197.27,132.28,196,139.08,194.75,146.17Zm117.46-25.89c-1.62-6.9-3.33-13.59-5.15-20l9.58-3c1.92,6.5,3.63,13.4,5.35,20.49ZM201,115.68l-9.68-2.5c1.72-7.09,3.63-14,5.55-20.49l9.58,3.1C204.53,102.09,202.72,108.79,201,115.68ZM304,90.59c-2.22-6.8-4.64-13.29-7.06-19.09l9.08-4.2c2.62,6.2,5,12.9,7.46,20Zm-94.47-4.5-9.37-3.5a207.18,207.18,0,0,1,7.86-19.89l9.07,4.4c-2.62,5.8-5.14,12.2-7.56,19ZM292.75,62.2a121.14,121.14,0,0,0-10.08-17.09l8.06-6.2a136.41,136.41,0,0,1,11,18.49Zm-71.28-4.1-8.77-5a113.57,113.57,0,0,1,11.79-18.19l7.67,6.6A100.83,100.83,0,0,0,221.47,58.1Zm55-20.49c-4.84-5-9.78-8.4-14.62-9.8l2.72-9.9c6.55,2,12.9,6.2,18.95,12.5Zm-37.91-3-6.55-7.9c6.65-5.9,13.61-9.2,20.66-10.1l1.11,10.3c-5,.7-10.18,3.3-15.22,7.7Z"/><path class="cls-2" d="M257.27,512C115.19,511.9,0,396.7,0,254.61A257.06,257.06,0,0,1,75.39,72.71c102-99,264.88-96.59,363.87,5.3,97,99.9,97,258.69,0,358.59A256.23,256.23,0,0,1,257.27,512Zm0-495.39c-131.38,0-238,106.5-238,238A238.14,238.14,0,0,0,89,422.9c92.89,92.9,243.58,92.9,336.57,0s92.89-243.59,0-336.59A236.92,236.92,0,0,0,257.27,16.61Z"/><path class="cls-3" d="M232.1,415.42a8.46,8.46,0,0,1,4.3-11.2,8,8,0,0,1,3.4-.7h34.9a8.49,8.49,0,0,1,8.5,8.5,8,8,0,0,1-.7,3.4l-10,22.5-7.5,16.9a8.46,8.46,0,0,1-11.2,4.3,8.58,8.58,0,0,1-4.3-4.3l-7.5-16.9Z"/><path class="cls-4" d="M495.26,254.29h0a30.82,30.82,0,0,1-3.5,14.22l-9.3-4.34a22.56,22.56,0,0,0,2.5-9.88h0a20.62,20.62,0,0,0-.9-6l9.9-2.82A32.8,32.8,0,0,1,495.26,254.29Zm-6.6-19.36-8.6,5.55a57.26,57.26,0,0,0-13.49-13l6.19-8.06A68.5,68.5,0,0,1,488.66,234.93ZM485.26,278a81.41,81.41,0,0,1-16.89,14.12l-5.7-8.37a68.88,68.88,0,0,0,14.79-12.2Zm-21.69-64.32-5.3,8.57a150.08,150.08,0,0,0-18.1-8.87l4.1-9.18a150.08,150.08,0,0,1,19.3,9.48Zm-4.5,83.78a188.57,188.57,0,0,1-19.5,8.87L435.68,297a177.72,177.72,0,0,0,18.39-8.37Zm-24.69-97.19-3.7,9.38c-6-2.22-12.6-4.34-19.5-6.35l3-9.58C421.28,195.71,428.08,197.93,434.38,200.25ZM429.58,310c-6.4,2.22-13.2,4.34-20.3,6.25l-2.79-9.57c6.89-1.92,13.49-3.94,19.59-6.05ZM404,190.88l-2.7,9.67c-6.4-1.61-13.2-3.22-20.1-4.63l2.2-9.78c7,1.41,14,3,20.6,4.74Zm-5,128c-6.6,1.61-13.6,3.12-20.7,4.53l-2-9.78c6.9-1.31,13.7-2.82,20.2-4.43ZM372.9,184.12,371,194c-6.6-1.21-13.5-2.32-20.5-3.33l1.5-9.88C359.1,181.7,366.2,182.81,372.9,184.12Zm-5,141.25c-6.8,1.21-13.8,2.22-20.9,3.22l-1.4-9.88c7-.9,13.9-2,20.5-3.12ZM341.61,179.28l-1.3,9.88c-6.7-.8-13.7-1.61-20.7-2.22l1-10C327.61,177.77,334.71,178.47,341.61,179.28Zm-5.1,150.52c-6.9.81-14,1.52-21,2.12l-.9-10c7-.6,13.9-1.21,20.7-2ZM310,176.26l-.79,10c-6.8-.51-13.8-.91-20.8-1.21l.5-10C296,175.25,303.12,175.75,310,176.26Zm-5.09,156.47c-6.9.5-14.1.8-21.1,1.11l-.4-10c6.9-.31,13.9-.61,20.8-1.11Zm-26.5-158.09-.3,10c-6.89-.2-13.89-.3-20.79-.3H257v-10h.3c7,0,14.1.1,21.09.3Zm-5.19,159.5c-5.3.1-10.7.2-16,.2h-5.1l.1-10h5c5.2,0,10.5-.1,15.8-.2Zm-26.6-149.82c-6.89.1-13.89.3-20.79.61l-.5-10c7-.31,14.1-.51,21.09-.61Zm-4.79,139.74-.2,10c-7-.1-14.2-.4-21.1-.71l.5-10c6.8.41,13.8.61,20.8.71Zm-26.4-138.53q-10.49.61-20.69,1.51l-1-10c6.9-.6,14-1.11,21.09-1.61Zm-4.79,137.22-.7,10c-7-.51-14.2-1-21.1-1.72l1-10c6.9.71,13.8,1.21,20.8,1.72Zm-26.3-134.7c-7,.71-13.89,1.62-20.59,2.52l-1.5-9.88c6.8-1,13.9-1.81,21-2.62Zm-4.79,131.87-1.2,10c-7.1-.81-14.1-1.72-21-2.83l1.6-9.88C165.76,318.21,172.66,319.12,179.56,319.92Zm-26.1-127.63c-7,1.11-13.79,2.42-20.39,3.73l-2.2-9.78c6.7-1.41,13.7-2.62,20.79-3.83Zm-4.6,123.3-1.79,9.88c-7.1-1.21-14.1-2.62-20.8-4l2.3-9.78C135,313.07,141.77,314.38,148.86,315.59ZM123,198.13c-6.9,1.62-13.59,3.33-20,5.15l-3-9.58c6.5-1.92,13.4-3.63,20.49-5.34Zm-4.6,111.21-2.5,9.68c-7.09-1.72-14-3.63-20.49-5.55l3.1-9.58C104.78,305.81,111.48,307.62,118.37,309.34Zm-25.09-103c-6.8,2.22-13.29,4.64-19.09,7.06L70,204.28c6.2-2.62,12.89-5,20-7.46Zm-4.5,94.47-3.5,9.37a204.6,204.6,0,0,1-19.89-7.86l4.4-9.07c5.8,2.62,12.2,5.14,19,7.56ZM64.89,217.59A121.14,121.14,0,0,0,47.8,227.67l-6.2-8.06a138.51,138.51,0,0,1,18.49-11Zm-4.1,71.28-5,8.77A112.89,112.89,0,0,1,37.6,285.85l6.6-7.66A101.44,101.44,0,0,0,60.79,288.87ZM40.3,233.82c-5,4.84-8.4,9.78-9.8,14.62l-9.9-2.72c2-6.55,6.2-12.9,12.5-18.95Zm-3,37.91-7.9,6.56c-5.9-6.66-9.2-13.61-10.1-20.67l10.3-1.11c.7,5,3.3,10.18,7.7,15.22Z"/></svg>