<svg id="Layer_1" data-name="Layer 1" xmlns="http://www.w3.org/2000/svg" xmlns:xlink="http://www.w3.org/1999/xlink" viewBox="0 0 5500 1000"><defs><style>.cls-1{fill:url(#linear-gradient);}.cls-2{fill:url(#linear-gradient-2);}.cls-3{fill:url(#linear-gradient-3);}</style><linearGradient id="linear-gradient" x1="146.45" y1="146.45" x2="853.55" y2="853.55" gradientUnits="userSpaceOnUse"><stop offset="0" stop-color="#fc80ff"/><stop offset="1" stop-color="#4724ff"/></linearGradient><linearGradient id="linear-gradient-2" x1="314.78" y1="573.45" x2="715.59" y2="466.06" gradientTransform="translate(868.08 -130.95) rotate(75)" gradientUnits="userSpaceOnUse"><stop offset="0" stop-color="#4724ff"/><stop offset="1" stop-color="#fc80ff"/></linearGradient><linearGradient id="linear-gradient-3" x1="764.09" y1="758.53" x2="235.37" y2="229.81" gradientTransform="translate(-111.03 151.89) rotate(-15)" xlink:href="#linear-gradient"/></defs><path d="M1405,680.47q-41.23,0-75.84-14.22a178.56,178.56,0,0,1-99.3-100q-14-34.59-14-75.84,0-40.75,14-75.36a178.51,178.51,0,0,1,99.3-100q34.59-14.22,75.84-14.22,40.76,0,75.36,14.22a182,182,0,0,1,60.19,39.81A179.14,179.14,0,0,1,1580.1,415q14,34.6,14,75.36,0,41.24-14,75.84a179,179,0,0,1-39.58,60.19,181.88,181.88,0,0,1-60.19,39.82Q1445.73,680.47,1405,680.47Zm0-35.08q32.7,0,60.66-11.61a144.89,144.89,0,0,0,48.59-32.7,150.1,150.1,0,0,0,32-49.3q11.37-28.18,11.37-61.38a161.33,161.33,0,0,0-11.37-60.9,150.16,150.16,0,0,0-32-49.29,145.07,145.07,0,0,0-48.59-32.71q-28-11.61-60.66-11.61-33.2,0-61.15,11.61a145,145,0,0,0-48.58,32.71,150,150,0,0,0-32,49.29,161.33,161.33,0,0,0-11.38,60.9q0,33.2,11.38,61.38a149.94,149.94,0,0,0,32,49.3,144.85,144.85,0,0,0,48.58,32.7Q1371.78,645.41,1405,645.39ZM1544.31,670l-102.38-101.9q-5.68-5.7-5.68-12.8t5.68-12.8a16.89,16.89,0,0,1,12.33-5.21,18.5,18.5,0,0,1,12.8,5.21l102.85,102.38a17.74,17.74,0,0,1,0,25.12q-5.7,5.69-12.8,5.69T1544.31,670Z"/><path d="M1778.45,678.57q-33.66,0-60.2-14t-41.94-41q-15.4-27-15.41-65.88V434.48a17.81,17.81,0,0,1,18-18,18,18,0,0,1,13.28,5.21,17.44,17.44,0,0,1,5.21,12.8V557.71q0,29.38,11.14,48.34a71.06,71.06,0,0,0,30.33,28.44q19.2,9.5,43.37,9.48,23.22,0,42-9t29.62-24.64a60.74,60.74,0,0,0,10.9-35.55h26.07q-1.42,29.87-16.35,53.32a106.25,106.25,0,0,1-40,37Q1809.24,678.58,1778.45,678.57Zm104.27-2.84q-8.07,0-13-5t-5-13.51V434.48q0-8.06,5-13t13-5a18.43,18.43,0,0,1,13.27,5q5.22,5,5.22,13V657.24q0,8.53-5.22,13.51A18.44,18.44,0,0,1,1882.72,675.73Z"/><path d="M2117.8,678.1q-37,0-66.59-17.07a126.6,126.6,0,0,1-46.92-46.68q-17.31-29.62-17.78-66.6V324q0-8.54,5-13.51t13.51-5q8.05,0,13,5t5,13.51V463.39q15.65-22.27,41.47-35.79t57.59-13.5q36.49,0,65.41,17.3a126.07,126.07,0,0,1,45.74,47.16q16.82,29.85,16.82,67.3,0,37.92-17.3,67.78a127.48,127.48,0,0,1-47.16,47.16Q2155.72,678.1,2117.8,678.1Zm0-33.18q27.49,0,49.3-13a94.45,94.45,0,0,0,34.36-35.31Q2214,574.31,2214,545.86q0-28-12.56-50.48a92.38,92.38,0,0,0-34.36-35.31q-21.81-12.79-49.3-12.8-27,0-48.81,12.8a90.54,90.54,0,0,0-34.13,35.31q-12.33,22.51-12.32,50.48,0,28.44,12.32,50.71A92.53,92.53,0,0,0,2069,631.88Q2090.79,644.93,2117.8,644.92Z"/><path d="M2347.2,367.17a24.58,24.58,0,0,1-18-7.58,25.13,25.13,0,0,1-7.59-18.49q0-11.84,7.82-18.72a26.86,26.86,0,0,1,18.25-6.87,26.26,26.26,0,0,1,17.78,6.87q7.82,6.89,7.82,18.72a25.9,25.9,0,0,1-26.07,26.07Zm.47,308.56q-8.52,0-13.5-5t-5-13.51V435q0-8.54,5-13.51t13.5-5q8.05,0,13,5t5,13.51V657.24q0,8.53-5,13.51T2347.67,675.73Z"/><path d="M2442,457.7a16.52,16.52,0,0,1-11.85-4.5,14.7,14.7,0,0,1-4.74-11.14,15.26,15.26,0,0,1,4.74-11.61,16.53,16.53,0,0,1,11.85-4.51h120.86a16.54,16.54,0,0,1,11.85,4.51,15.33,15.33,0,0,1,4.74,11.61,14.77,14.77,0,0,1-4.74,11.14,16.54,16.54,0,0,1-11.85,4.5Zm118,218q-25.12,0-44.79-11.85a85.23,85.23,0,0,1-31-32.47q-11.37-20.62-11.38-47.16V352.48a18.44,18.44,0,0,1,5-13.27q5-5.22,13-5.22a17.85,17.85,0,0,1,18.49,18.49V584.25q0,24.16,14.22,39.58t36.49,15.4h12.8a15.93,15.93,0,0,1,12.33,5.21,19.06,19.06,0,0,1,4.73,13.28,16.49,16.49,0,0,1-5.68,13,20.8,20.8,0,0,1-14.22,5Z"/><path d="M2811.2,675.73a17.85,17.85,0,0,1-18.48-18.49V324a17.83,17.83,0,0,1,18.48-18.48H2906q35.07,0,62.09,15.4a109.93,109.93,0,0,1,42.18,42.42q15.17,27,15.17,62.56,0,34.6-15.17,61.38a110.37,110.37,0,0,1-42.18,42.19q-27,15.4-62.09,15.4h-76.31V657.24a17.85,17.85,0,0,1-18.49,18.49Zm18.49-166.37H2906q24.16,0,43.13-10.66a76.32,76.32,0,0,0,29.62-29.62q10.66-19,10.67-43.14,0-25.11-10.67-44.07A78,78,0,0,0,2949.13,352q-19-10.9-43.13-10.91h-76.31Z"/><path d="M3134,675.73a57.77,57.77,0,0,1-33.89-10.43q-14.94-10.42-23.23-28.91t-8.29-42.66V323.57q0-8.06,5-13t13-5q8.05,0,13,5t5,13V593.73q0,20.38,8.3,33.18T3134,639.7h11.85a14.21,14.21,0,0,1,11.37,5q4.28,5,4.27,13a16.2,16.2,0,0,1-5.93,13q-5.92,5-15.4,5Z"/><path d="M3311.71,678.1q-36.49,0-65.4-17.3a126,126,0,0,1-45.74-47.16q-16.83-29.86-16.83-67.31,0-37.91,17.3-67.77a127.41,127.41,0,0,1,47.16-47.16q29.87-17.31,67.31-17.3t67.06,17.3a128,128,0,0,1,46.93,47.16q17.3,29.85,17.77,67.77l-14.69,11.38q0,34.13-15.88,61.38a117.7,117.7,0,0,1-43.13,43.13Q3346.3,678.1,3311.71,678.1Zm3.8-33.18q27.48,0,49-12.8a92.82,92.82,0,0,0,34.13-35.31q12.55-22.5,12.56-50.48,0-28.44-12.56-50.71a95.14,95.14,0,0,0-34.13-35.31q-21.57-13-49-13-27,0-48.82,13a96.3,96.3,0,0,0-34.6,35.31q-12.8,22.27-12.8,50.71,0,28,12.8,50.48a93.93,93.93,0,0,0,34.6,35.31Q3288.48,644.92,3315.51,644.92Zm113.28,30.81a18.45,18.45,0,0,1-13.28-5q-5.22-5-5.21-13V576.67l9-37.45,28,7.11V657.72q0,8.06-5.21,13A18.46,18.46,0,0,1,3428.79,675.73Z"/><path d="M3615.52,667.67q-7.11,3.32-13.27,1.18t-9.95-9.24l-105.7-219q-3.32-7.11-.94-13.27c1.57-4.11,4.74-7.27,9.47-9.48s9.17-2.61,13.28-1.19,7.26,4.51,9.48,9.24l103.79,219q3.8,7.11,2.37,13.27T3615.52,667.67Zm-52.61,120.86a23.54,23.54,0,0,1-8.53-1.89q-16.11-7.11-9-22.76l153.09-337.46q7.11-15.17,22.75-8.53,16.11,6.64,9,22.27L3576.66,777.63Q3571.92,788.52,3562.91,788.53Z"/><path d="M3882.84,678.1q-37.44,0-66.35-16.83a119,119,0,0,1-45.27-46.69q-16.35-29.85-16.35-68.25,0-38.85,17.06-68.72a122.25,122.25,0,0,1,46.93-46.69q29.85-16.82,67.77-16.82,38.4,0,68,16.82a121.1,121.1,0,0,1,46.45,46.69q16.82,29.85,17.3,68.72l-21.33,11.38q0,35.09-14.69,62.32a108.55,108.55,0,0,1-40.53,42.66Q3916,678.1,3882.84,678.1Zm4.74,100q-37.44,0-65.88-14A130.65,130.65,0,0,1,3774.78,726q-5.22-5.69-4.51-12.33t6.88-10.9a17.53,17.53,0,0,1,13.74-2.84,18.48,18.48,0,0,1,11.85,7.11q13.74,17.06,35.31,27.49t50,10.43q26.54,0,47.87-12.8t33.89-36q12.54-23.24,12.56-54.51v-72l13.74-27.49,22.28,4.26V643q0,38.4-17.07,69a128.73,128.73,0,0,1-46.45,48.35Q3925.5,778.1,3887.58,778.1Zm-.95-133.18q28,0,49.53-12.56a89.75,89.75,0,0,0,33.89-34.84q12.33-22.28,12.33-51.19t-12.33-51.42a89.45,89.45,0,0,0-33.89-35.08q-21.57-12.56-49.53-12.56t-49.76,12.56a88.88,88.88,0,0,0-34.13,35.08q-12.33,22.51-12.32,51.42t12.32,51.19a89.18,89.18,0,0,0,34.13,34.84Q3858.67,644.92,3886.63,644.92Z"/><path d="M4107.5,675.73q-8.53,0-13.27-4.74t-4.74-13.27V434.48q0-8.53,4.74-13.27t13.27-4.74q8.52,0,13.27,4.74c3.15,3.16,4.74,7.58,4.74,13.27V657.72c0,5.68-1.59,10.11-4.74,13.27S4113.18,675.73,4107.5,675.73ZM4104.65,516q1.43-29.38,15.41-52.61a103.47,103.47,0,0,1,36.49-36.5q22.52-13.26,50-13.27,21.79,0,33.65,6.16t9,18c-1.26,4.74-3.4,7.91-6.39,9.48a19.81,19.81,0,0,1-10.91,1.9q-6.39-.46-14.45-.95-26.55-2.37-47.16,5.45t-32.71,23.94q-12.08,16.11-12.08,38.39Z"/><path d="M4405.62,678.1q-37.92,0-67.77-17.07a123.88,123.88,0,0,1-46.93-46.92q-17.06-29.86-17.06-67.78,0-38.39,17.06-68.25a123.88,123.88,0,0,1,46.93-46.92q29.85-17.07,67.77-17.06t67.54,17.06a124.39,124.39,0,0,1,46.69,46.92q17.06,29.87,17.54,68.25,0,37.93-17.3,67.78A126.16,126.16,0,0,1,4473.16,661Q4443.54,678.1,4405.62,678.1Zm0-33.18q27.48,0,49.3-12.8A91,91,0,0,0,4489,597.05q12.31-22.27,12.32-50.72t-12.32-51a90.66,90.66,0,0,0-34.12-35.31q-21.81-12.79-49.3-12.8t-49.29,12.8A92.24,92.24,0,0,0,4322,495.38q-12.57,22.51-12.56,51T4322,597.05a92.65,92.65,0,0,0,34.36,35.07Q4378.13,644.92,4405.62,644.92Z"/><path d="M4721.28,678.57q-33.66,0-60.19-14t-41.95-41q-15.41-27-15.4-65.88V434.48a17.79,17.79,0,0,1,18-18,18,18,0,0,1,13.27,5.21,17.44,17.44,0,0,1,5.21,12.8V557.71q0,29.38,11.14,48.34a71.12,71.12,0,0,0,30.33,28.44q19.2,9.5,43.37,9.48,23.22,0,42-9t29.62-24.64a60.67,60.67,0,0,0,10.9-35.55h26.07q-1.43,29.87-16.35,53.32a106.18,106.18,0,0,1-40.05,37Q4752.09,678.58,4721.28,678.57Zm104.27-2.84q-8.05,0-13-5t-5-13.51V434.48q0-8.06,5-13t13-5a18.43,18.43,0,0,1,13.27,5q5.22,5,5.22,13V657.24q0,8.53-5.22,13.51A18.44,18.44,0,0,1,4825.55,675.73Z"/><path d="M4947.83,675.73q-8.53,0-13.51-5t-5-13V435q0-8.54,5-13.51t13.51-5q8.06,0,13,5t5,13.51V657.72q0,8.06-5,13T4947.83,675.73Zm203.81,0a17.94,17.94,0,0,1-13.27-5.22,17.37,17.37,0,0,1-5.22-12.79V534.48q0-29.37-11.13-48.34a71.2,71.2,0,0,0-30.34-28.44q-19.2-9.48-43.37-9.48-23.22,0-41.94,9t-29.63,24.64a60.67,60.67,0,0,0-10.9,35.55h-26.07q.94-29.86,16.12-53.32a108,108,0,0,1,40.29-37q25.11-13.51,55.92-13.51,33.66,0,60.2,14t41.95,41q15.39,27,15.4,65.88V657.72a17.81,17.81,0,0,1-18,18Z"/><path d="M5368.24,678.1q-37.45,0-67.31-17.3a127.48,127.48,0,0,1-47.16-47.16q-17.31-29.86-17.3-67.78,0-37.44,16.83-67.3A125.92,125.92,0,0,1,5299,431.4q28.91-17.31,65.4-17.3,31.76,0,57.35,13.5T5463,463.39V324q0-8.54,5.21-13.51a20.21,20.21,0,0,1,26.55,0q5.21,5,5.21,13.51V547.75q-1,37-18.25,66.6A126.74,126.74,0,0,1,5434.83,661Q5405.21,678.1,5368.24,678.1Zm0-33.18q27.48,0,49.05-13a95,95,0,0,0,34.13-35.31Q5464,574.31,5464,545.86q0-28-12.56-50.48a92.89,92.89,0,0,0-34.13-35.31q-21.57-12.79-49.05-12.8-27,0-48.82,12.8a94,94,0,0,0-34.6,35.31Q5272,517.9,5272,545.86q0,28.44,12.8,50.71a96.14,96.14,0,0,0,34.6,35.31Q5341.22,644.93,5368.24,644.92Z"/><circle class="cls-1" cx="500" cy="500" r="500"/><path class="cls-2" d="M16.23,630.67h0a65.31,65.31,0,0,1-.55-30.57l21.25,3.72a45.38,45.38,0,0,0,.3,21.22h0a42.48,42.48,0,0,0,5.18,11.71L23.82,647.9A62.43,62.43,0,0,1,16.23,630.67ZM40,666l14.39-15.93c8.62,7.19,20.22,13.51,34.48,18.79L80.7,688.41C64.16,682.28,50.47,674.74,40,666ZM23.73,577.57c6.05-12.13,15.06-24.75,26.75-37.51L66.6,553.71C56.26,565,48.4,575.94,43.24,586.29Zm78.69,117.67,6.18-20.15a337,337,0,0,0,41.48,8l-3.45,20.69A358.09,358.09,0,0,1,102.42,695.24ZM66.51,524a404.14,404.14,0,0,1,34.77-28.48l12.92,16.51a381.57,381.57,0,0,0-32.84,26.89ZM168.9,706.29l2.44-20.81c13.52,1.19,28,1.93,43,2.19l-.86,20.89C198,708.3,182.94,707.53,168.9,706.29ZM119.58,482.68c11.73-7.9,24.47-15.85,37.85-23.63l10.91,17.83c-13,7.53-25.27,15.22-36.6,22.84Zm116.2,225.94.2-20.89c13.93-.16,28.52-.71,43.37-1.61l.91,20.85C265.05,707.9,250.08,708.45,235.78,708.62ZM176.85,448.13c12.57-6.86,25.89-13.7,39.57-20.34l9.43,18.62c-13.37,6.49-26.37,13.17-38.63,19.85ZM302.44,705.37,301,684.55c14.11-1.17,28.69-2.67,43.34-4.46l2.27,20.73C331.71,702.65,316.84,704.18,302.44,705.37ZM236.53,418.29c13.13-6,26.83-12,40.72-17.78l8.21,19.16c-13.63,5.66-27.06,11.52-39.94,17.44ZM368.68,697.93,366,677.25c14.15-2,28.66-4.27,43.13-6.8L412.55,691C397.84,693.58,383.08,695.91,368.68,697.93ZM297.84,392.18c13.54-5.34,27.52-10.59,41.57-15.61l7.16,19.57c-13.82,4.94-27.58,10.1-40.88,15.35ZM434.38,687l-3.77-20.49c14.13-2.7,28.53-5.67,42.8-8.85L477.86,678C463.36,681.26,448.74,684.28,434.38,687Zm-74-317.76c13.84-4.7,28.05-9.29,42.23-13.65l6.18,19.9c-14,4.29-28,8.81-41.6,13.44Zm139.1,303.81-4.76-20.29c14-3.33,28.31-6.94,42.4-10.71l.58-.16L543.09,662l-.58.16C528.22,666,513.74,669.68,499.48,673.07ZM423.87,349.26c10.68-3.11,21.57-6.16,32.36-9.05q5.22-1.4,10.41-2.75l5.25,20.17q-5.13,1.33-10.26,2.71c-10.64,2.85-21.37,5.84-31.89,8.91ZM558.76,636.1c14-4,28.13-8.2,41.89-12.54L607,643.41c-14,4.4-28.27,8.68-42.52,12.72ZM493.08,352.26,488.15,332c14.39-3.53,29-6.88,43.26-10l4.28,20.39C521.59,345.48,507.26,348.78,493.08,352.26ZM621.45,616.84c13.9-4.61,27.78-9.45,41.26-14.39L670,622c-13.7,5-27.8,9.94-41.92,14.62ZM557.09,338l-4-20.46c14.61-2.91,29.3-5.6,43.68-8l3.24,20.59C585.92,332.52,571.46,335.17,557.09,338ZM683.15,594.78c13.72-5.29,27.33-10.8,40.43-16.38L732,597.48c-13.35,5.69-27.2,11.3-41.17,16.68Zm-61.53-268-2.87-20.65c14.83-2.21,29.65-4.16,44-5.79l2.07,20.75C650.74,322.67,636.19,324.59,621.62,326.76ZM743.55,569.68c13.51-6.06,26.74-12.32,39.34-18.61l9.66,18.51c-12.89,6.43-26.41,12.83-40.2,19Zm-57-250.85L684.9,298c15.08-1.41,30-2.49,44.36-3.21l.66,20.87C715.89,316.4,701.29,317.46,686.54,318.83ZM802.21,541.14c13.19-7,25.88-14.13,37.73-21.26l11.2,17.66c-12.2,7.34-25.25,14.7-38.8,21.87ZM751.6,314.88,751.5,294c15.36-.38,30.36-.35,44.57.12L794.87,315C781.09,314.54,766.53,314.51,751.6,314.88ZM858.25,508.46c12.66-8.2,24.45-16.51,35-24.7l13.35,16.18c-11.08,8.57-23.38,17.24-36.56,25.78Zm-41.87-192.4,2-20.84c15.75,1.07,30.73,2.73,44.52,4.94l-4,20.62C845.76,318.67,831.46,317.09,816.38,316.06Zm93.35,154.25a251.77,251.77,0,0,0,29.34-29.57l16.87,12.77a272.73,272.73,0,0,1-31.9,32.2ZM879.65,324.74,885,304.39a238.07,238.07,0,0,1,43.36,13.78l-9.35,19A217.11,217.11,0,0,0,879.65,324.74Zm71.21,99.68c7.67-12.44,11.73-24.14,12-34.77l21.68.15c-.43,14.27-5.52,29.41-15.13,45Zm-14.39-77.9,12.43-17.38c15.46,10.09,26.06,22.26,31.5,36.15L960.08,373C956.21,363.14,948.27,354.22,936.47,346.52Z"/><path class="cls-3" d="M629,983h0a65.27,65.27,0,0,1-30.56.55l3.71-21.25a45.42,45.42,0,0,0,21.23-.3h0a42.4,42.4,0,0,0,11.72-5.18l11.14,18.59A62.43,62.43,0,0,1,629,983Zm35.35-23.77-15.93-14.39c7.19-8.62,13.52-20.22,18.8-34.48l19.52,8.17C680.57,935.05,673,948.74,664.31,959.21Zm-88.44,16.27c-12.14-6.05-24.76-15.06-37.51-26.75L552,932.61c11.27,10.34,22.24,18.2,32.59,23.36Zm117.67-78.69-20.15-6.18a337,337,0,0,0,8-41.48l20.7,3.45A360,360,0,0,1,693.54,896.79ZM522.32,932.7a402.28,402.28,0,0,1-28.48-34.77L510.35,885a379.7,379.7,0,0,0,26.89,32.84ZM704.58,830.31l-20.81-2.44c1.2-13.52,1.94-28,2.2-43l20.89.86C706.59,801.26,705.82,816.27,704.58,830.31ZM481,879.63c-7.89-11.73-15.84-24.47-23.62-37.86l17.83-10.9c7.53,13,15.21,25.27,22.84,36.6Zm225.95-116.2-20.9-.2c-.16-13.93-.7-28.53-1.61-43.37l20.86-.91C706.19,734.16,706.75,749.13,706.92,763.43Zm-260.5,58.93c-6.85-12.57-13.69-25.89-20.34-39.57l18.62-9.43c6.49,13.37,13.17,26.37,19.86,38.63ZM703.67,696.77l-20.82,1.4c-1.17-14.11-2.67-28.69-4.46-43.34l20.73-2.27C700.94,667.5,702.47,682.37,703.67,696.77ZM416.59,762.68c-6-13.13-12-26.83-17.79-40.72L418,713.75c5.65,13.63,11.52,27.06,17.44,39.94ZM696.22,630.53l-20.67,2.68c-2-14.15-4.28-28.66-6.8-43.13l20.56-3.42C691.88,601.37,694.2,616.13,696.22,630.53ZM390.47,701.37c-5.34-13.54-10.59-27.52-15.61-41.57l19.58-7.16c4.93,13.82,10.1,27.58,15.35,40.88ZM685.32,564.83l-20.5,3.77c-2.69-14.13-5.67-28.53-8.84-42.8l20.35-4.45C679.56,535.85,682.58,550.47,685.32,564.83Zm-317.76,74c-4.71-13.84-9.3-28.05-13.65-42.23l19.9-6.18c4.28,14,8.81,28,13.44,41.6Zm303.8-139.1-20.28,4.76c-3.34-14.05-7-28.31-10.72-42.4l-.15-.58,20.12-5.39.15.58C664.31,471,668,485.47,671.36,499.73ZM347.55,575.34c-3.11-10.68-6.15-21.57-9-32.37q-1.39-5.21-2.75-10.4l20.16-5.25q1.33,5.13,2.71,10.26c2.85,10.64,5.85,21.37,8.91,31.89Zm286.84-134.9c-4-14-8.2-28.12-12.53-41.88l19.85-6.34c4.4,14,8.68,28.27,12.72,42.52ZM350.56,506.13l-20.25,4.93c-3.53-14.39-6.88-28.95-9.95-43.26l20.39-4.28C343.78,477.61,347.08,492,350.56,506.13ZM615.14,377.76c-4.61-13.9-9.45-27.78-14.39-41.26l19.51-7.32c5,13.7,9.94,27.8,14.62,41.92ZM336.32,442.12l-20.46,3.95c-2.91-14.61-5.59-29.3-8-43.68l20.59-3.24C330.82,413.29,333.46,427.75,336.32,442.12ZM593.07,316.06c-5.29-13.72-10.79-27.33-16.38-40.43l19.09-8.41c5.68,13.35,11.29,27.2,16.67,41.17Zm-268,61.53-20.65,2.87c-2.22-14.83-4.16-29.65-5.79-44l20.75-2.07C321,348.47,322.88,363,325.06,377.59ZM568,255.65c-6.05-13.5-12.31-26.73-18.6-39.34l18.5-9.65c6.44,12.89,12.83,26.41,19,40.2Zm-250.84,57-20.8,1.64c-1.41-15.08-2.48-30-3.2-44.36l20.87-.66C314.7,283.32,315.75,297.92,317.13,312.67ZM539.44,197c-7-13.19-14.14-25.88-21.27-37.73l17.66-11.2c7.34,12.2,14.7,25.25,21.87,38.8ZM313.18,247.61l-20.89.1c-.39-15.36-.35-30.36.11-44.57l20.89,1.2C312.84,218.12,312.8,232.68,313.18,247.61ZM506.75,141c-8.2-12.66-16.51-24.45-24.7-35l16.18-13.35C506.8,103.65,515.48,116,524,129.13ZM314.36,182.83l-20.84-2c1.07-15.75,2.73-30.73,4.94-44.52l20.61,4C317,153.45,315.38,167.75,314.36,182.83ZM468.61,89.48A251,251,0,0,0,439,60.14l12.78-16.87A273.49,273.49,0,0,1,484,75.17ZM323,119.56l-20.35-5.36a238.1,238.1,0,0,1,13.77-43.36l19.05,9.35A216.07,216.07,0,0,0,323,119.56Zm99.67-71.21c-12.44-7.67-24.14-11.73-34.77-12l.16-21.68c14.26.43,29.4,5.52,45,15.13Zm-77.9,14.39L327.43,50.31c10.1-15.46,22.26-26.06,36.16-31.5l7.74,20.32C361.44,43,352.51,50.94,344.81,62.74Z"/></svg>