<svg id="Layer_1" data-name="Layer 1" xmlns="http://www.w3.org/2000/svg" viewBox="0 0 1600 1600" fill="white"><path d="M1585.43,785.81h-402.5V533.31a115.13,115.13,0,0,0-115-115h-534a115.13,115.13,0,0,0-115,115v252.5H15.43a15,15,0,1,0,0,30h403.5v251.5a115.13,115.13,0,0,0,115,115h534a115.13,115.13,0,0,0,115-115V815.81h402.5a15,15,0,0,0,0-30Zm-432.5,281.5a85.1,85.1,0,0,1-85,85h-534a85.1,85.1,0,0,1-85-85v-534a85.1,85.1,0,0,1,85-85h534a85.1,85.1,0,0,1,85,85v534Z"/><path d="M800,679c112.15,0,204.25,87.54,211.54,197.88a15,15,0,0,0,15,14.12h0a15,15,0,0,0,15-15.86,242,242,0,0,0-483,0,15,15,0,0,0,15,15.86h0a15,15,0,0,0,15-14.12C595.75,766.54,687.85,679,800,679Z"/><path d="M903.12,747.82l-92.31,77.8a33.48,33.48,0,1,0,21.7,22l77.92-92.46C914.53,750.28,908,743.73,903.12,747.82Z"/></svg>
