<svg id="Layer_1" data-name="Layer 1" xmlns="http://www.w3.org/2000/svg" viewBox="0 0 1600 1600" fill="white"><path d="M1585,1202H964.31C957.15,1123,894,1059.85,815,1052.69V482.88A100.06,100.06,0,0,0,898.88,399H1585a15,15,0,0,0,0-30H898.88a100,100,0,0,0-197.76,0H15a15,15,0,0,0,0,30H701.12A100.06,100.06,0,0,0,785,482.88v569.81C706,1059.85,642.85,1123,635.69,1202H15a15,15,0,0,0,0,30H635.69c7.6,84,78.39,150,164.31,150s156.71-66,164.31-150H1585a15,15,0,0,0,0-30Zm-650.84,0H815V1082.84A135.24,135.24,0,0,1,934.16,1202ZM785,1082.84V1202H665.84A135.24,135.24,0,0,1,785,1082.84ZM665.84,1232H785v119.16A135.24,135.24,0,0,1,665.84,1232ZM815,1351.16V1232H934.16A135.24,135.24,0,0,1,815,1351.16Z"/></svg>
