<svg id="Layer_1" data-name="Layer 1" xmlns="http://www.w3.org/2000/svg" viewBox="0 0 1600 1600" fill="white"><path d="M655.28,1000.69a19.28,19.28,0,0,1-20-20V620.66a20,20,0,1,1,40,0v159.8H925.19V620.66a20,20,0,1,1,39.95,0V980.71a20,20,0,1,1-39.95,0V816.31H675.26v164.4a19.3,19.3,0,0,1-20,20Z"/><path d="M1585.43,785.81h-402.5V533.31a115.13,115.13,0,0,0-115-115h-534a115.13,115.13,0,0,0-115,115v252.5H15.43a15,15,0,1,0,0,30h403.5v251.5a115.13,115.13,0,0,0,115,115h534a115.13,115.13,0,0,0,115-115V815.81h402.5a15,15,0,0,0,0-30Zm-432.5,281.5a85.1,85.1,0,0,1-85,85h-534a85.1,85.1,0,0,1-85-85v-534a85.1,85.1,0,0,1,85-85h534a85.1,85.1,0,0,1,85,85v534Z"/></svg>
