<svg id="Layer_1" data-name="Layer 1" xmlns="http://www.w3.org/2000/svg" viewBox="0 0 1600 1600" fill="white"><path d="M1585,1202H840.66l57-57a15,15,0,1,0-21.21-21.21L815,1185.24v-765L872.79,478A15,15,0,0,0,894,456.79L836.21,399H1585a15,15,0,0,0,0-30H839.85l55.93-55.93a15,15,0,0,0-21.21-21.22L801.82,364.6,727.21,290A15,15,0,0,0,706,311.21L763.79,369H15a15,15,0,0,0,0,30H767.42l-59.64,59.64A15,15,0,0,0,729,479.85l56-56v754l-55.9-55.89a15,15,0,0,0-21.21,21.21L766.75,1202H15a15,15,0,0,0,0,30H768.24l-58.57,58.57a15,15,0,0,0,21.21,21.21L803.71,1239l71,71a15,15,0,1,0,21.21-21.22L839.18,1232H1585a15,15,0,0,0,0-30Z"/></svg>
