<svg id="Layer_1" data-name="Layer 1" xmlns="http://www.w3.org/2000/svg" viewBox="0 0 1600 1600" fill="white"><path d="M661.25,1000.4q-8.71,0-13.58-5.13a19.77,19.77,0,0,1-5.37-12.8,20.62,20.62,0,0,1,4.61-14.34L780.58,785.8,799,771,918.86,607.57q5.64-7.17,15.37-7.17,8.19,0,13.06,5.37a20.76,20.76,0,0,1,5.38,12.81,19.33,19.33,0,0,1-3.59,13.06l-126,171.06L805.68,817,675.59,994.25A18.62,18.62,0,0,1,661.25,1000.4Zm277.08,0a20.22,20.22,0,0,1-8.2-1.8,19.8,19.8,0,0,1-7.17-5.37L795.43,816.53l-15.87-11.78L655.1,631.64a20.34,20.34,0,0,1,1.28-26.12q4.86-5.12,13.06-5.12,9.72,0,15.37,7.17L805.16,774l14.34,9.73L952.67,968.13A21.26,21.26,0,0,1,957,982,19.83,19.83,0,0,1,951.9,995Q947,1000.39,938.33,1000.4Z"/><path d="M1585.43,785.81h-402.5V533.31a115.13,115.13,0,0,0-115-115h-534a115.13,115.13,0,0,0-115,115v252.5H15.43a15,15,0,1,0,0,30h403.5v251.5a115.13,115.13,0,0,0,115,115h534a115.13,115.13,0,0,0,115-115V815.81h402.5a15,15,0,0,0,0-30Zm-432.5,281.5a85.1,85.1,0,0,1-85,85h-534a85.1,85.1,0,0,1-85-85v-534a85.1,85.1,0,0,1,85-85h534a85.1,85.1,0,0,1,85,85v534Z"/></svg>
