<svg id="Layer_1" data-name="Layer 1" xmlns="http://www.w3.org/2000/svg" viewBox="0 0 1600 1600" fill="white"><defs><style>.cls-1{fill:none;}</style></defs><path class="cls-1" d="M1152,785.5V533a85.1,85.1,0,0,0-85-85H533a85.1,85.1,0,0,0-85,85V785.5"/><path class="cls-1" d="M448,815.5V1067a85.1,85.1,0,0,0,85,85h534a85.1,85.1,0,0,0,85-85V815.5"/><path d="M1584.5,785.5H1182V533a115.13,115.13,0,0,0-115-115H533A115.13,115.13,0,0,0,418,533V785.5H14.5a15,15,0,0,0,0,30H418V1067a115.13,115.13,0,0,0,115,115h534a115.13,115.13,0,0,0,115-115V815.5h402.5a15,15,0,0,0,0-30ZM1152,1067a85.1,85.1,0,0,1-85,85H533a85.1,85.1,0,0,1-85-85V533a85.1,85.1,0,0,1,85-85h534a85.1,85.1,0,0,1,85,85v534Z"/><path d="M799.07,1000.42a20.11,20.11,0,0,1-20-20v-128L639.79,631.66Q634.66,624,636,616.81a20.06,20.06,0,0,1,6.4-11.78,18.43,18.43,0,0,1,12.81-4.61,17.74,17.74,0,0,1,10,2.56,25.43,25.43,0,0,1,6.92,7.17L810.34,832.94H788.83L926.6,611.18a24.44,24.44,0,0,1,7.94-8.2,20.42,20.42,0,0,1,10.5-2.56,16.38,16.38,0,0,1,12,4.86,19.45,19.45,0,0,1,5.63,12q.76,7.18-3.84,14.34L819.05,852.41v128a20.11,20.11,0,0,1-20,20Z"/></svg>
