<svg id="Layer_1" data-name="Layer 1" xmlns="http://www.w3.org/2000/svg" viewBox="0 0 1600 1600" fill="white"><path d="M660.08,1000.26q-8.72,0-14.08-5.64a20.37,20.37,0,0,1-5.89-13.06,19.65,19.65,0,0,1,4.1-13.57L909,636.11H662.13q-9.21,0-14.34-4.61t-5.12-12.81a17.37,17.37,0,0,1,5.63-13.06q5.64-5.37,14.34-5.37h277.6q9.21,0,14.34,5.63A22.52,22.52,0,0,1,960.47,619a15.54,15.54,0,0,1-3.84,12.55L690.81,964.4H940.24a21.45,21.45,0,0,1,14.08,4.87,16.1,16.1,0,0,1,5.89,13.06,16.26,16.26,0,0,1-5.89,12.8,20.75,20.75,0,0,1-14.08,5.13Z"/><path d="M1585.43,785.81h-402.5V533.31a115.13,115.13,0,0,0-115-115h-534a115.13,115.13,0,0,0-115,115v252.5H15.43a15,15,0,1,0,0,30h403.5v251.5a115.13,115.13,0,0,0,115,115h534a115.13,115.13,0,0,0,115-115V815.81h402.5a15,15,0,0,0,0-30Zm-432.5,281.5a85.1,85.1,0,0,1-85,85h-534a85.1,85.1,0,0,1-85-85v-534a85.1,85.1,0,0,1,85-85h534a85.1,85.1,0,0,1,85,85v534Z"/></svg>
