<svg id="Layer_1" data-name="Layer 1" xmlns="http://www.w3.org/2000/svg" viewBox="0 0 1600 1600" fill="white"><path d="M960.47,1034a22.52,22.52,0,0,0-5.89-13.06q-5.13-5.62-14.34-5.63H662.64q-8.71,0-14.34,5.37a17.37,17.37,0,0,0-5.63,13.06q0,8.2,5.12,12.81t14.34,4.61H909L644.21,1383a19.65,19.65,0,0,0-4.1,13.57,20.37,20.37,0,0,0,5.89,13.06q5.37,5.64,14.08,5.64H940.24a20.75,20.75,0,0,0,14.08-5.13,16.26,16.26,0,0,0,5.89-12.8,16.1,16.1,0,0,0-5.89-13.06,21.45,21.45,0,0,0-14.08-4.87H690.81l265.82-332.9A15.54,15.54,0,0,0,960.47,1034Z"/><path d="M1585.43,1200.81h-402.5V948.31a115.13,115.13,0,0,0-115-115H815V482.88A100.06,100.06,0,0,0,898.88,399H1585a15,15,0,0,0,0-30H898.88a100,100,0,0,0-197.76,0H15a15,15,0,0,0,0,30H701.12A100.06,100.06,0,0,0,785,482.88V833.31H533.93a115.13,115.13,0,0,0-115,115v252.5H15.43a15,15,0,0,0,0,30h403.5v251.5a115.13,115.13,0,0,0,115,115h534a115.13,115.13,0,0,0,115-115v-251.5h402.5a15,15,0,0,0,0-30Zm-432.5,0v281.5a85.1,85.1,0,0,1-85,85h-534a85.1,85.1,0,0,1-85-85v-534a85.1,85.1,0,0,1,85-85h534a85.1,85.1,0,0,1,85,85Z"/></svg>
