<svg id="Layer_1" data-name="Layer 1" xmlns="http://www.w3.org/2000/svg" viewBox="0 0 1600 1600" fill="white"><path d="M805.23,1000.53q-32,0-59.17-9.24t-47.19-26.22a115.5,115.5,0,0,1-30.46-39.45q-4-8-.26-14.73t12.74-9.24a18.16,18.16,0,0,1,13.73,1.5,23.17,23.17,0,0,1,10.24,10.49q7.49,14.49,22,26a105.07,105.07,0,0,0,34.46,17.72,146.44,146.44,0,0,0,43.94,6.25q26.47,0,46.94-8.74t32.21-25.47q11.73-16.73,11.74-40.7,0-30.45-22.47-52.43t-70.41-28q-58.44-7-91.39-36.2t-33-71.66q0-30.46,16.23-52.94t44.7-34.7q28.45-12.24,65.41-12.24,27.46,0,49.94,8.74a136.09,136.09,0,0,1,39.2,23,132.71,132.71,0,0,1,27.22,31.21q5,8,3.24,15.48a17.35,17.35,0,0,1-8.74,11.49,20.83,20.83,0,0,1-27-8.49,112.67,112.67,0,0,0-18.73-21.72A83.32,83.32,0,0,0,843.19,644q-16-6-38.46-6.49-39.45,0-63.42,16.72t-24,48.69a57.3,57.3,0,0,0,9,31.21q9,14.24,29.71,24.47t55.69,15.23q62.41,9,92.63,38.21t30.21,76.15q0,27-9.74,47.94a96.84,96.84,0,0,1-27.46,35.21A126.07,126.07,0,0,1,855.92,993,167.55,167.55,0,0,1,805.23,1000.53Z"/><path d="M1585.43,785.81h-402.5V533.31a115.13,115.13,0,0,0-115-115h-534a115.13,115.13,0,0,0-115,115v252.5H15.43a15,15,0,1,0,0,30h403.5v251.5a115.13,115.13,0,0,0,115,115h534a115.13,115.13,0,0,0,115-115V815.81h402.5a15,15,0,0,0,0-30Zm-432.5,281.5a85.1,85.1,0,0,1-85,85h-534a85.1,85.1,0,0,1-85-85v-534a85.1,85.1,0,0,1,85-85h534a85.1,85.1,0,0,1,85,85v534Z"/></svg>
