<svg id="Layer_1" data-name="Layer 1" xmlns="http://www.w3.org/2000/svg" viewBox="0 0 1600 1600" fill="white"><path d="M1585,1202H1296V399h289a15,15,0,0,0,0-30H1296V267.05a125.2,125.2,0,0,0-125-125H428.05A125.2,125.2,0,0,0,303,267.05V369H15a15,15,0,0,0,0,30H303v803H15a15,15,0,0,0,0,30H303v168a125.2,125.2,0,0,0,125.05,125H1171a125.2,125.2,0,0,0,125-125V1232h289a15,15,0,0,0,0-30Zm-319,198a95.16,95.16,0,0,1-95,95H428.05A95.16,95.16,0,0,1,333,1400V267.05A95.16,95.16,0,0,1,428.05,172H1171a95.16,95.16,0,0,1,95,95.05V1400Z"/><path d="M662.68,723.8a148.14,148.14,0,0,0-48.78-32.28C595.3,683.88,574.8,680,553,680c-22.09,0-42.72,3.87-61.31,11.51a144.82,144.82,0,0,0-80.52,81.09c-7.51,18.58-11.31,39.08-11.31,60.91,0,22.09,3.8,42.71,11.31,61.28a144.87,144.87,0,0,0,80.52,81.1c18.59,7.64,39.22,11.51,61.31,11.51,21.84,0,42.34-3.87,60.94-11.51A153.09,153.09,0,0,0,641.71,961l16.88,16.81a18.49,18.49,0,0,0,27.11,0l.16-.16a18.9,18.9,0,0,0,0-26.43l-15.7-15.64a147.12,147.12,0,0,0,24.63-40.75c7.51-18.59,11.32-39.2,11.32-61.28,0-21.82-3.81-42.31-11.32-60.91A145.84,145.84,0,0,0,662.68,723.8Zm-57.55,147-.15-.14a19.4,19.4,0,0,0-13.41-5.4,18.08,18.08,0,0,0-13.18,5.55,18.48,18.48,0,0,0,0,27.13L614,933.39a111,111,0,0,1-15.42,7.83,124.74,124.74,0,0,1-91.59,0,108.8,108.8,0,0,1-36.4-24.5,112.94,112.94,0,0,1-24-37,128.15,128.15,0,0,1,0-92.05,113.15,113.15,0,0,1,24-37A109.17,109.17,0,0,1,507,726.2a124.61,124.61,0,0,1,91.59,0A109.22,109.22,0,0,1,635,750.69a113.31,113.31,0,0,1,24,37,128.18,128.18,0,0,1,0,92.06,114.59,114.59,0,0,1-16.4,28.35Z"/><path d="M926.47,683.72H752.34a19,19,0,0,0-19.48,19.48v261a19.57,19.57,0,0,0,33.49,13.66,19.15,19.15,0,0,0,5.47-13.66v-112H883A19,19,0,0,0,897,846.71a19.34,19.34,0,0,0,0-27.12A19,19,0,0,0,883,814H771.82V721.57H926.47A19,19,0,0,0,940.41,716,18.09,18.09,0,0,0,946,702.83,18.34,18.34,0,0,0,940.32,689,19.36,19.36,0,0,0,926.47,683.72Z"/><path d="M1193.25,688.89a18,18,0,0,0-13.19-5.17H974.74a17.71,17.71,0,0,0-18.36,18.37,17.44,17.44,0,0,0,5.17,12.81,17.91,17.91,0,0,0,13.19,5.18h83V964.22a19.57,19.57,0,0,0,33.49,13.66,19.15,19.15,0,0,0,5.47-13.66V720.08h83.36a17.91,17.91,0,0,0,13.19-5.18,17.44,17.44,0,0,0,5.18-12.81A18,18,0,0,0,1193.25,688.89Z"/></svg>
