<svg id="Layer_1" data-name="Layer 1" xmlns="http://www.w3.org/2000/svg" viewBox="0 0 1600 1600" fill="white"><path d="M658.51,637.25q-8.21,0-13.32-5.12a17.34,17.34,0,0,1-5.12-12.8q0-8.19,5.12-13.32t13.32-5.12H941.73q8.19,0,13.32,5.12t5.12,13.32a17.37,17.37,0,0,1-5.12,12.8q-5.13,5.13-13.32,5.12Zm141.35,363.64a20.11,20.11,0,0,1-20-20v-380h40v380A19.64,19.64,0,0,1,814.2,995,19,19,0,0,1,799.86,1000.89Z"/><path d="M1584.43,786.81h-402.5V534.31a115.13,115.13,0,0,0-115-115h-534a115.13,115.13,0,0,0-115,115v252.5H14.43a15,15,0,1,0,0,30h403.5v251.5a115.13,115.13,0,0,0,115,115h534a115.13,115.13,0,0,0,115-115V816.81h402.5a15,15,0,0,0,0-30Zm-432.5,281.5a85.1,85.1,0,0,1-85,85h-534a85.1,85.1,0,0,1-85-85v-534a85.1,85.1,0,0,1,85-85h534a85.1,85.1,0,0,1,85,85v534Z"/></svg>
