<svg id="Layer_1" data-name="Layer 1" xmlns="http://www.w3.org/2000/svg" xmlns:xlink="http://www.w3.org/1999/xlink" viewBox="0 0 512 512"><defs><style>.cls-1{fill:url(#linear-gradient);}.cls-2{fill:url(#linear-gradient-2);}.cls-3{fill:url(#linear-gradient-3);}</style><linearGradient id="linear-gradient" x1="74.98" y1="74.98" x2="437.02" y2="437.02" gradientUnits="userSpaceOnUse"><stop offset="0" stop-color="#fc80ff"/><stop offset="1" stop-color="#4724ff"/></linearGradient><linearGradient id="linear-gradient-2" x1="-940.21" y1="-1141.56" x2="-734.99" y2="-1196.55" gradientTransform="translate(-656.76 1368.25) rotate(75)" gradientUnits="userSpaceOnUse"><stop offset="0" stop-color="#4724ff"/><stop offset="1" stop-color="#fc80ff"/></linearGradient><linearGradient id="linear-gradient-3" x1="340.31" y1="772.65" x2="69.61" y2="501.95" gradientTransform="translate(-107.14 -306.59) rotate(-15)" xlink:href="#linear-gradient"/></defs><circle class="cls-1" cx="256" cy="256" r="256"/><path class="cls-2" d="M8.31,322.9h0A33.4,33.4,0,0,1,8,307.25l10.88,1.9A23.39,23.39,0,0,0,19.06,320h0a21.91,21.91,0,0,0,2.65,6l-9.51,5.7A31.62,31.62,0,0,1,8.31,322.9ZM20.48,341l7.37-8.16c4.41,3.69,10.35,6.92,17.65,9.63l-4.18,10C32.85,349.33,25.84,345.47,20.48,341Zm-8.33-45.28a85.49,85.49,0,0,1,13.7-19.21l8.25,7a74.69,74.69,0,0,0-12,16.68ZM52.44,356l3.17-10.31a173.33,173.33,0,0,0,21.23,4.11l-1.76,10.6A182.68,182.68,0,0,1,52.44,356ZM34.05,268.3a206.34,206.34,0,0,1,17.8-14.58l6.62,8.45a193.77,193.77,0,0,0-16.82,13.77Zm52.43,93.32L87.73,351c6.92.62,14.33,1,22,1.13l-.44,10.69C101.35,362.65,93.67,362.26,86.48,361.62ZM61.23,247.13c6-4,12.52-8.11,19.38-12.1l5.58,9.13C79.55,248,73.25,252,67.45,255.86Zm59.49,115.68.1-10.69c7.14-.09,14.61-.36,22.21-.83l.46,10.68C135.7,362.44,128,362.73,120.72,362.81ZM90.55,229.44c6.44-3.51,13.25-7,20.26-10.41l4.82,9.53c-6.84,3.32-13.49,6.74-19.77,10.17Zm64.3,131.71-.72-10.66c7.23-.6,14.69-1.37,22.19-2.28l1.17,10.61C169.84,359.76,162.22,360.54,154.85,361.15Zm-33.75-147c6.72-3.1,13.74-6.16,20.85-9.11l4.21,9.81c-7,2.9-13.86,5.9-20.45,8.93Zm67.66,143.17-1.37-10.59c7.25-1,14.68-2.18,22.08-3.48l1.75,10.53C203.69,355.11,196.13,356.3,188.76,357.34ZM152.49,200.79c6.93-2.73,14.1-5.42,21.29-8l3.66,10c-7.07,2.53-14.12,5.18-20.93,7.86Zm69.91,151-1.93-10.5c7.24-1.38,14.61-2.9,21.92-4.53l2.27,10.43C237.24,348.81,229.75,350.35,222.4,351.76Zm-37.89-162.7c7.09-2.41,14.36-4.76,21.63-7l3.16,10.19c-7.15,2.2-14.32,4.51-21.3,6.88Zm71.23,155.55-2.44-10.38c7.19-1.71,14.49-3.56,21.7-5.49l.3-.08,2.76,10.3-.3.08C270.45,341,263,342.87,255.74,344.61ZM217,178.82c5.47-1.59,11-3.15,16.57-4.63l5.33-1.41,2.69,10.32-5.26,1.39c-5.44,1.46-10.94,3-16.33,4.57Zm69.07,146.86c7.18-2,14.4-4.2,21.45-6.42l3.24,10.17c-7.15,2.25-14.48,4.44-21.77,6.51ZM252.46,180.36,249.94,170c7.36-1.8,14.81-3.52,22.14-5.09l2.19,10.44C267.06,176.89,259.72,178.58,252.46,180.36Zm65.72,135.46c7.12-2.36,14.22-4.84,21.13-7.36l3.75,10c-7,2.57-14.24,5.08-21.47,7.48ZM285.23,173.07l-2-10.48c7.48-1.48,15-2.86,22.36-4.09l1.66,10.55C300,170.25,292.59,171.6,285.23,173.07Zm64.54,131.45c7-2.7,14-5.52,20.71-8.38l4.3,9.77c-6.84,2.91-13.93,5.78-21.08,8.54ZM318.27,167.3l-1.47-10.57c7.59-1.13,15.18-2.13,22.55-3l1.06,10.63C333.18,165.21,325.73,166.19,318.27,167.3ZM380.7,291.67c6.91-3.09,13.69-6.3,20.14-9.52l4.94,9.47c-6.59,3.3-13.52,6.57-20.58,9.74ZM351.51,163.24l-.84-10.65c7.72-.72,15.36-1.27,22.71-1.63l.34,10.68C366.53,162,359.06,162.54,351.51,163.24Zm59.22,113.82c6.75-3.57,13.25-7.23,19.32-10.88l5.74,9c-6.25,3.76-12.94,7.52-19.87,11.2ZM384.82,161.22l-.05-10.69c7.86-.2,15.54-.18,22.82.05l-.62,10.7C399.92,161.05,392.47,161,384.82,161.22Zm54.6,99.11c6.49-4.2,12.52-8.45,17.94-12.65L464.2,256c-5.67,4.39-12,8.83-18.72,13.2ZM418,161.82l1-10.67c8.07.55,15.74,1.4,22.8,2.53l-2.05,10.56C433,163.16,425.71,162.35,418,161.82Zm47.79,79a129.17,129.17,0,0,0,15-15.14l8.64,6.54a139.38,139.38,0,0,1-16.33,16.48Zm-15.4-74.53,2.75-10.42a122.72,122.72,0,0,1,22.2,7.05l-4.79,9.75A111.49,111.49,0,0,0,450.38,166.27Zm36.46,51c3.93-6.37,6-12.36,6.17-17.8l11.1.08c-.22,7.3-2.83,15-7.75,23Zm-7.37-39.88,6.36-8.9c7.92,5.17,13.35,11.4,16.13,18.51l-10.4,4C489.58,185.93,485.51,181.36,479.47,177.42Z"/><path class="cls-3" d="M322,503.29h0a33.53,33.53,0,0,1-15.65.28l1.91-10.88a23.21,23.21,0,0,0,10.86-.16h0a21.85,21.85,0,0,0,6-2.65l5.71,9.52A32.35,32.35,0,0,1,322,503.29Zm18.1-12.17L332,483.75c3.68-4.42,6.92-10.36,9.63-17.65l10,4.17C348.45,478.74,344.6,485.76,340.13,491.12Zm-45.29,8.33a85.67,85.67,0,0,1-19.2-13.7l7-8.25a75.28,75.28,0,0,0,16.69,12Zm60.25-40.29L344.77,456a171.75,171.75,0,0,0,4.12-21.23l10.6,1.76A184.54,184.54,0,0,1,355.09,459.16Zm-87.66,18.38a204.49,204.49,0,0,1-14.58-17.8l8.45-6.61a195.08,195.08,0,0,0,13.77,16.81Zm93.32-52.42-10.66-1.25c.61-6.92,1-14.33,1.13-22l10.69.44C361.77,410.25,361.38,417.93,360.75,425.12ZM246.26,450.37c-4-6-8.12-12.53-12.1-19.38l9.13-5.59c3.86,6.64,7.79,12.94,11.69,18.74Zm115.68-59.49-10.7-.11c-.08-7.13-.36-14.6-.82-22.2l10.68-.47C361.57,375.89,361.86,383.55,361.94,390.88ZM228.57,421.05c-3.51-6.44-7-13.26-10.42-20.26l9.54-4.83c3.32,6.85,6.74,13.5,10.16,19.78Zm131.71-64.3-10.66.71c-.6-7.22-1.37-14.69-2.29-22.19L358,334.11C358.88,341.76,359.67,349.38,360.28,356.75Zm-147,33.74c-3.09-6.72-6.15-13.73-9.1-20.85l9.81-4.2c2.89,7,5.9,13.86,8.93,20.45Zm143.18-67.66-10.59,1.37c-1-7.24-2.19-14.67-3.48-22.08l10.53-1.75C354.24,307.9,355.43,315.46,356.47,322.83ZM199.92,359.1c-2.73-6.93-5.42-14.09-8-21.28l10-3.67c2.53,7.08,5.17,14.12,7.86,20.93Zm151-69.91-10.49,1.93c-1.38-7.23-2.9-14.61-4.53-21.91l10.42-2.28C347.93,274.35,349.48,281.84,350.88,289.19ZM188.19,327.08c-2.41-7.08-4.76-14.36-7-21.62l10.19-3.16c2.19,7.15,4.51,14.31,6.88,21.29Zm155.55-71.22-10.39,2.44c-1.71-7.19-3.55-14.5-5.49-21.71l-.07-.29,10.3-2.77.08.3C340.13,241.15,342,248.56,343.74,255.86ZM178,294.57c-1.6-5.47-3.15-11-4.63-16.57-.48-1.78-.95-3.55-1.41-5.33L182.23,270q.69,2.63,1.39,5.25c1.46,5.45,3,10.94,4.56,16.33Zm146.86-69.06c-2-7.19-4.2-14.4-6.42-21.45l10.16-3.25c2.26,7.16,4.45,14.48,6.52,21.77ZM179.49,259.14l-10.37,2.52c-1.81-7.37-3.52-14.82-5.1-22.15l10.44-2.19C176,244.54,177.7,251.88,179.49,259.14ZM315,193.41c-2.36-7.11-4.84-14.22-7.37-21.12l10-3.75c2.57,7,5.09,14.23,7.49,21.46Zm-142.75,33-10.48,2c-1.49-7.48-2.86-15-4.09-22.36l10.54-1.67C169.38,211.6,170.73,219,172.2,226.37Zm131.45-64.54c-2.7-7-5.53-14-8.38-20.71l9.77-4.3c2.91,6.83,5.78,13.92,8.53,21.08ZM166.43,193.32l-10.57,1.47c-1.14-7.59-2.13-15.17-3-22.55l10.63-1.06C164.34,178.42,165.32,185.87,166.43,193.32ZM290.8,130.9c-3.1-6.92-6.3-13.69-9.52-20.15l9.47-4.94c3.3,6.6,6.57,13.52,9.73,20.58ZM162.37,160.09l-10.65.84c-.72-7.72-1.27-15.37-1.64-22.72l10.69-.33C161.13,145.06,161.66,152.53,162.37,160.09Zm113.82-59.23c-3.57-6.75-7.23-13.25-10.89-19.32l9.05-5.73c3.75,6.25,7.52,12.93,11.19,19.87ZM160.35,126.77l-10.7.06c-.2-7.87-.18-15.55.06-22.82l10.69.61C160.17,111.68,160.15,119.13,160.35,126.77Zm99.11-54.6c-4.2-6.48-8.46-12.52-12.65-17.94l8.29-6.84c4.38,5.68,8.83,12,13.2,18.73ZM161,93.61l-10.67-1c.55-8.07,1.4-15.74,2.53-22.79l10.56,2C162.29,78.56,161.48,85.89,161,93.61Zm79-47.8a130,130,0,0,0-15.14-15l6.54-8.64a140.92,140.92,0,0,1,16.48,16.33ZM165.4,61.21,155,58.47A122.7,122.7,0,0,1,162,36.27l9.75,4.79A110.59,110.59,0,0,0,165.4,61.21Zm51-36.46c-6.37-3.92-12.36-6-17.8-6.16l.08-11.1c7.3.22,15,2.83,23,7.75Zm-39.89,7.37-8.89-6.36c5.17-7.92,11.39-13.34,18.51-16.13l4,10.4C185.06,22,180.49,26.08,176.54,32.12Z"/></svg>